M48
; DRILL file {KiCad (6.0.10)} date Sun Dec 22 14:37:08 2024
; FORMAT={-:-/ absolute / metric / decimal}
; #@! TF.CreationDate,2024-12-22T14:37:08+01:00
; #@! TF.GenerationSoftware,Kicad,Pcbnew,(6.0.10)
; #@! TF.FileFunction,Plated,1,4,PTH
FMAT,2
METRIC
; #@! TA.AperFunction,Plated,PTH,ViaDrill
T1C0.200
; #@! TA.AperFunction,Plated,PTH,ComponentDrill
T2C0.200
; #@! TA.AperFunction,Plated,PTH,ViaDrill
T3C0.300
; #@! TA.AperFunction,Plated,PTH,ViaDrill
T4C0.350
; #@! TA.AperFunction,Plated,PTH,ViaDrill
T5C0.400
; #@! TA.AperFunction,Plated,PTH,ComponentDrill
T6C0.500
; #@! TA.AperFunction,Plated,PTH,ComponentDrill
T7C0.550
; #@! TA.AperFunction,Plated,PTH,ComponentDrill
T8C1.000
; #@! TA.AperFunction,Plated,PTH,ComponentDrill
T9C1.020
%
G90
G05
T1
X52.45Y-194.665
T2
X79.975Y-159.175
X79.975Y-160.15
X79.975Y-161.125
X80.95Y-159.175
X80.95Y-160.15
X80.95Y-161.125
X81.925Y-159.175
X81.925Y-160.15
X81.925Y-161.125
T3
X49.3Y-134.25
X49.35Y-137.4
X50.8Y-132.0
X50.8Y-139.65
X52.3Y-134.25
X52.35Y-137.45
X52.635Y-182.1
X52.785Y-179.963
X54.4Y-141.3
X55.4Y-141.35
X56.2Y-146.45
X56.4Y-133.45
X56.4Y-136.5
X56.55Y-141.35
X57.0Y-144.6
X57.55Y-147.95
X57.95Y-141.75
X58.7Y-141.7
X63.0Y-139.35
X63.05Y-141.95
X63.55Y-144.95
X63.6Y-147.9
X64.25Y-140.7
X65.0Y-146.45
X67.8Y-154.8
X67.9Y-151.6
X68.0Y-164.8
X68.0Y-167.15
X68.2Y-173.2
X68.2Y-175.55
X68.275Y-157.3
X68.3Y-170.8
X68.85Y-151.8
X69.025Y-159.975
X69.725Y-161.825
X69.95Y-169.55
X70.15Y-150.3
X70.65Y-163.275
X70.92Y-179.36
X70.97Y-177.12
X71.02Y-176.02
X71.02Y-178.24
X71.15Y-152.85
X71.225Y-150.15
X71.23Y-173.62
X71.7Y-167.25
X71.7Y-169.6
X71.725Y-166.175
X71.8Y-164.85
X71.85Y-157.95
X71.919Y-155.622
X72.1Y-179.38
X72.15Y-177.14
X72.2Y-176.04
X72.2Y-178.26
X72.55Y-150.4
X72.65Y-160.25
X73.0Y-174.35
X73.15Y-162.45
X73.34Y-179.38
X73.39Y-177.14
X73.44Y-176.04
X73.44Y-178.26
X73.704Y-152.521
X73.75Y-157.55
X73.755Y-154.989
X74.15Y-204.467
X74.67Y-174.4
X74.71Y-179.37
X74.728Y-202.214
X74.76Y-177.13
X74.8Y-148.3
X74.81Y-176.03
X74.81Y-178.25
X74.875Y-204.14
X74.9Y-150.4
X75.425Y-202.275
X75.5Y-153.05
X75.575Y-203.813
X75.6Y-170.0
X75.7Y-168.6
X75.85Y-173.75
X75.9Y-171.5
X76.05Y-159.3
X76.06Y-179.37
X76.11Y-177.13
X76.16Y-176.03
X76.16Y-178.25
X76.26Y-151.939
X76.375Y-147.875
X76.465Y-202.26
X76.55Y-148.95
X76.7Y-153.25
X76.85Y-158.75
X77.15Y-158.0
X77.4Y-146.8
X77.59Y-179.33
X77.64Y-177.09
X77.69Y-175.99
X77.69Y-178.21
X77.85Y-158.85
X77.925Y-164.475
X78.02Y-141.62
X78.05Y-154.5
X78.11Y-140.48
X78.126Y-160.829
X78.14Y-142.7
X78.29Y-144.07
X78.35Y-150.05
X78.4Y-166.9
X78.45Y-169.2
X78.45Y-171.6
X78.45Y-173.65
X78.65Y-165.4
X78.85Y-164.45
X78.95Y-155.35
X78.975Y-154.55
X79.01Y-179.28
X79.06Y-177.04
X79.11Y-175.94
X79.11Y-178.16
X79.159Y-147.395
X79.24Y-141.57
X79.33Y-140.43
X79.36Y-142.65
X79.409Y-162.94
X79.51Y-144.02
X80.33Y-141.54
X80.42Y-140.4
X80.45Y-142.62
X80.45Y-155.75
X80.6Y-143.99
X81.3Y-163.3
X81.75Y-172.5
X81.8Y-166.85
X81.8Y-174.95
X81.85Y-149.2
X81.85Y-150.9
X81.85Y-152.3
X81.95Y-145.7
X81.958Y-164.444
X82.0Y-147.25
X82.05Y-176.38
X82.175Y-154.3
X82.38Y-140.55
X82.38Y-141.96
X82.45Y-170.05
X82.55Y-165.7
X82.552Y-168.279
X82.57Y-144.43
X82.6Y-143.31
X82.65Y-163.15
X82.85Y-155.85
X82.85Y-156.775
X82.85Y-157.8
X82.9Y-154.95
X83.05Y-174.85
X83.175Y-153.75
X83.78Y-140.59
X83.78Y-142.0
X83.875Y-203.025
X83.9Y-161.7
X83.95Y-154.6
X83.97Y-144.47
X84.0Y-143.35
X84.2Y-174.9
X84.45Y-168.35
X84.55Y-155.8
X84.6Y-163.0
X84.75Y-170.15
X84.8Y-149.85
X84.8Y-152.2
X84.85Y-191.358
X84.85Y-193.05
X84.9Y-147.45
X84.9Y-165.15
X85.0Y-140.54
X85.0Y-141.95
X85.19Y-144.42
X85.22Y-143.3
X85.45Y-156.8
X85.5Y-168.4
X85.5Y-174.85
X85.65Y-164.15
X85.85Y-159.1
X86.09Y-140.51
X86.09Y-141.92
X86.15Y-149.7
X86.15Y-152.05
X86.25Y-147.3
X86.28Y-144.39
X86.31Y-143.27
X86.5Y-164.9
X86.6Y-166.75
X86.65Y-156.0
X86.65Y-158.35
X86.653Y-163.191
X86.7Y-169.8
X86.7Y-174.85
X86.75Y-153.6
X86.855Y-171.607
X87.65Y-174.75
X87.7Y-149.6
X87.7Y-151.95
X87.8Y-147.2
X87.85Y-156.05
X87.85Y-158.4
X87.85Y-176.7
X87.878Y-202.109
X87.95Y-153.65
X88.007Y-164.343
X88.159Y-166.988
X88.25Y-169.949
X88.4Y-174.15
X88.45Y-168.595
X88.463Y-171.164
X88.501Y-172.595
X88.75Y-156.1
X88.75Y-158.45
X88.975Y-176.675
X89.3Y-147.25
X89.4Y-197.625
X89.65Y-161.75
X89.65Y-164.1
X89.75Y-159.35
X89.95Y-173.3
X89.95Y-175.65
X90.0Y-167.25
X90.05Y-170.9
X90.15Y-197.6
X90.175Y-198.325
X90.575Y-188.724
X90.575Y-190.126
X91.6Y-198.125
X92.525Y-200.575
X93.066Y-186.655
X93.085Y-201.35
X93.425Y-199.675
X93.575Y-186.175
X94.109Y-185.724
X94.126Y-187.691
X94.39Y-204.975
X94.797Y-203.261
X94.984Y-186.834
X95.2Y-199.273
X95.201Y-200.674
X95.25Y-187.65
X95.769Y-198.866
X96.008Y-201.937
X97.0Y-200.775
X97.425Y-205.15
X98.4Y-205.325
X98.662Y-194.368
X99.05Y-194.95
X100.05Y-196.0
X100.57Y-196.468
X100.625Y-204.474
X100.635Y-202.875
X100.635Y-203.775
X101.187Y-190.587
X101.988Y-203.725
X102.05Y-202.925
X102.1Y-190.4
X102.338Y-204.425
X102.988Y-190.238
X103.95Y-176.225
X126.712Y-176.862
X127.325Y-176.25
X145.825Y-137.2
X146.6Y-137.95
X290.95Y-188.525
X293.445Y-187.375
X293.525Y-189.605
X312.75Y-195.775
X317.6Y-202.275
X328.025Y-149.675
X358.1Y-175.675
T4
X51.26Y-194.62
X52.23Y-193.3
X53.475Y-131.1
X53.5Y-132.2
X54.575Y-132.175
X54.65Y-131.125
X54.72Y-185.02
X55.67Y-198.94
X55.675Y-132.2
X55.9Y-131.15
X56.21Y-207.04
X56.78Y-185.02
X56.9Y-131.175
X56.975Y-132.275
X58.225Y-131.175
X58.275Y-132.275
X58.35Y-199.08
X63.28Y-190.78
X68.7Y-196.4
X70.51Y-199.22
X71.68Y-196.24
X71.73Y-193.84
X72.05Y-195.08
X72.14Y-199.11
X74.0Y-199.42
X75.91Y-208.62
X76.08Y-209.93
X77.49Y-208.68
X77.57Y-209.88
X79.34Y-209.9
X79.44Y-208.69
X85.65Y-199.31
X85.93Y-196.01
X86.43Y-197.25
X89.38Y-207.56
X90.27Y-208.41
X91.49Y-180.612
X92.78Y-180.612
X93.76Y-209.61
X94.119Y-180.735
X96.39Y-180.92
X97.44Y-187.45
X98.627Y-203.428
X99.0Y-187.3
X102.48Y-202.06
X102.7Y-198.213
X104.6Y-200.6
X152.88Y-138.31
T5
X51.025Y-208.2
X51.06Y-161.38
X51.1Y-164.28
X51.14Y-167.56
X51.15Y-209.175
X51.175Y-204.975
X51.2Y-203.95
X51.525Y-199.55
X51.69Y-145.72
X51.73Y-148.62
X51.77Y-151.9
X52.19Y-206.39
X52.67Y-209.98
X52.825Y-198.975
X53.8Y-205.67
X54.975Y-205.95
X56.825Y-198.775
X57.45Y-152.1
X57.75Y-167.15
X58.3Y-185.025
X60.49Y-205.41
X60.83Y-135.68
X60.83Y-207.71
X62.225Y-158.8
X62.81Y-172.78
X62.85Y-175.68
X62.89Y-178.96
X63.121Y-133.332
X63.46Y-205.41
X63.8Y-207.71
X63.96Y-159.97
X64.39Y-162.18
X64.58Y-158.32
X65.143Y-131.254
X65.46Y-210.47
X66.36Y-205.37
X66.7Y-207.67
X67.854Y-181.907
X67.95Y-136.65
X68.36Y-210.43
X69.57Y-136.36
X69.64Y-205.33
X69.932Y-183.929
X69.98Y-207.63
X70.08Y-196.53
X70.64Y-133.8
X71.64Y-210.39
X72.28Y-186.22
X72.47Y-136.74
X72.53Y-205.41
X72.87Y-207.71
X74.495Y-201.1
X74.524Y-182.387
X75.717Y-194.285
X76.2Y-130.02
X76.602Y-184.409
X76.9Y-135.05
X76.95Y-133.5
X76.95Y-136.525
X77.8Y-196.063
X78.3Y-135.125
X78.4Y-136.5
X78.51Y-133.53
X78.95Y-186.7
X79.36Y-199.35
X79.375Y-194.259
X79.575Y-129.9
X79.7Y-201.65
X80.475Y-137.6
X82.25Y-199.43
X82.59Y-201.73
X84.0Y-130.475
X85.45Y-133.56
X85.96Y-130.7
X87.154Y-194.521
X87.44Y-132.4
X87.7Y-130.87
X88.91Y-148.485
X89.46Y-145.485
X91.35Y-153.2
X91.643Y-186.817
X91.86Y-151.915
X92.08Y-138.27
X92.37Y-154.415
X92.964Y-195.58
X93.116Y-193.396
X93.66Y-143.785
X93.947Y-139.656
X94.102Y-136.191
X94.81Y-148.485
X95.969Y-137.577
X96.393Y-133.844
X96.47Y-188.23
X96.903Y-156.013
X97.048Y-158.247
X97.415Y-152.9
X98.26Y-135.229
X99.85Y-173.1
X99.871Y-173.987
X102.21Y-183.5
X102.79Y-135.09
X104.558Y-185.791
X105.225Y-156.625
X105.75Y-203.86
X106.05Y-154.25
X106.09Y-205.44
X106.34Y-151.172
X106.636Y-187.813
X107.19Y-172.75
X107.23Y-176.03
X107.27Y-178.93
X107.59Y-204.01
X108.02Y-205.18
X108.525Y-153.017
X108.68Y-145.13
X109.025Y-200.975
X109.49Y-172.41
X109.53Y-175.69
X109.57Y-178.59
X109.64Y-138.62
X109.982Y-156.235
X110.134Y-154.711
X110.25Y-199.85
X110.34Y-148.15
X110.971Y-142.782
X111.43Y-152.4
X111.675Y-157.6
X112.05Y-146.843
X112.29Y-187.54
X112.993Y-140.704
X113.48Y-186.47
X113.51Y-187.96
X113.574Y-157.6
X113.64Y-138.35
X114.16Y-196.04
X114.17Y-187.17
X114.5Y-198.34
X115.1Y-190.69
X115.742Y-142.42
X116.17Y-132.39
X116.28Y-190.81
X116.52Y-189.26
X116.787Y-175.135
X117.06Y-196.0
X117.27Y-190.03
X117.32Y-167.26
X117.4Y-198.3
X117.48Y-177.978
X118.139Y-172.813
X118.332Y-141.81
X118.65Y-169.25
X118.829Y-179.228
X119.029Y-175.423
X120.34Y-195.96
X120.68Y-198.26
X120.96Y-168.04
X122.17Y-132.41
X123.292Y-141.33
X123.512Y-139.57
X123.532Y-136.81
X123.74Y-156.24
X123.75Y-155.09
X124.165Y-205.382
X124.765Y-155.804
X125.45Y-132.37
X126.27Y-154.53
X126.27Y-156.7
X126.59Y-139.16
X126.7Y-147.9
X127.54Y-141.51
X128.35Y-132.33
X128.605Y-174.73
X128.775Y-154.725
X128.917Y-191.3
X129.138Y-165.363
X129.63Y-147.34
X129.675Y-204.077
X129.695Y-205.377
X129.805Y-190.088
X129.97Y-149.64
X130.009Y-167.848
X130.025Y-156.05
X130.03Y-136.31
X130.175Y-166.375
X131.645Y-205.028
X131.66Y-167.77
X131.715Y-203.327
X132.498Y-191.97
X132.517Y-189.775
X132.53Y-147.3
X132.71Y-135.04
X132.87Y-149.6
X133.25Y-137.4
X133.285Y-173.15
X134.1Y-171.685
X134.207Y-183.385
X135.227Y-191.115
X135.33Y-136.2
X135.403Y-173.04
X135.81Y-147.26
X136.075Y-172.3
X136.15Y-149.56
X136.32Y-170.385
X137.255Y-205.812
X137.27Y-178.68
X137.61Y-180.98
X137.77Y-143.55
X137.98Y-162.98
X138.028Y-184.905
X138.39Y-131.98
X138.75Y-161.93
X139.1Y-163.49
X139.157Y-193.765
X139.66Y-145.3
X140.17Y-178.64
X140.25Y-162.76
X140.51Y-180.94
X140.588Y-199.565
X140.64Y-165.15
X140.68Y-138.16
X140.7Y-166.32
X141.558Y-193.995
X141.67Y-164.01
X141.951Y-142.952
X141.97Y-165.26
X142.468Y-155.725
X142.519Y-206.019
X142.723Y-204.749
X142.799Y-202.667
X143.45Y-178.6
X143.459Y-181.051
X143.973Y-140.874
X144.653Y-201.854
X144.82Y-132.05
X144.925Y-174.0
X145.375Y-172.959
X146.22Y-133.91
X146.558Y-204.876
X146.775Y-200.7
X146.888Y-206.121
X146.92Y-131.85
X147.274Y-173.975
X147.275Y-172.925
X147.38Y-154.284
X147.39Y-151.284
X147.961Y-188.372
X148.013Y-184.007
X148.742Y-156.083
X148.94Y-161.164
X149.141Y-188.062
X150.01Y-145.1
X150.35Y-147.4
X150.451Y-175.894
X150.85Y-158.597
X150.927Y-206.441
X151.63Y-201.17
X151.84Y-149.304
X151.851Y-187.842
X152.25Y-206.225
X152.4Y-182.45
X152.5Y-140.0
X152.79Y-156.384
X152.91Y-145.06
X153.05Y-211.5
X153.25Y-147.36
X153.67Y-152.474
X153.77Y-156.414
X154.051Y-188.482
X154.095Y-142.965
X154.474Y-189.525
X154.801Y-179.054
X155.07Y-184.22
X155.83Y-131.9
X155.924Y-190.251
X155.93Y-137.25
X156.19Y-145.02
X156.53Y-147.32
X157.02Y-133.59
X157.034Y-187.751
X157.04Y-172.27
X157.084Y-185.941
X157.371Y-177.594
X157.43Y-178.83
X157.63Y-136.65
X158.26Y-196.72
X158.35Y-199.425
X158.52Y-132.19
X159.304Y-179.191
X159.6Y-144.775
X160.0Y-142.4
X160.334Y-172.041
X161.691Y-189.074
X162.284Y-171.541
X162.73Y-134.86
X162.994Y-181.991
X163.05Y-165.08
X163.39Y-167.38
X163.449Y-174.641
X164.3Y-138.2
X164.554Y-187.511
X165.084Y-186.061
X165.61Y-136.55
X165.873Y-179.322
X165.95Y-165.04
X166.094Y-177.281
X166.29Y-167.34
X166.794Y-180.531
X167.7Y-195.29
X167.74Y-198.57
X167.78Y-201.47
X167.851Y-172.204
X168.05Y-132.4
X168.07Y-184.52
X168.86Y-142.98
X169.23Y-165.0
X169.57Y-167.3
X170.0Y-194.95
X170.04Y-198.23
X170.08Y-201.13
X170.4Y-140.3
X172.775Y-130.9
X172.775Y-157.0
X175.7Y-169.113
X175.725Y-172.138
X175.75Y-165.988
X176.03Y-137.11
X176.257Y-205.755
X176.32Y-133.73
X176.375Y-173.463
X177.75Y-130.95
X177.933Y-206.325
X178.67Y-130.47
X179.35Y-131.51
X180.1Y-201.65
X180.22Y-149.1
X180.665Y-191.922
X181.035Y-192.992
X182.725Y-154.4
X182.925Y-187.022
X182.97Y-130.45
X183.3Y-183.472
X184.275Y-189.847
X184.374Y-184.447
X184.375Y-165.313
X184.425Y-130.625
X184.85Y-186.997
X185.42Y-130.91
X185.47Y-153.22
X185.47Y-155.145
X186.45Y-163.088
X186.723Y-194.283
X186.77Y-146.62
X188.25Y-154.45
X188.495Y-193.292
X188.77Y-134.32
X189.1Y-206.1
X189.212Y-153.363
X190.05Y-146.58
X190.29Y-188.64
X190.854Y-192.837
X191.525Y-167.563
X191.55Y-170.663
X191.65Y-173.738
X191.65Y-191.225
X191.85Y-202.15
X191.9Y-200.35
X192.25Y-136.7
X192.95Y-146.54
X193.05Y-130.45
X193.5Y-204.35
X195.695Y-197.632
X196.725Y-209.2
X197.15Y-147.47
X199.35Y-133.05
X199.441Y-145.122
X200.65Y-131.0
X201.15Y-170.8
X201.463Y-143.044
X201.65Y-160.15
X201.71Y-165.51
X201.95Y-166.64
X205.75Y-141.15
X206.0Y-161.04
X206.22Y-191.37
X206.56Y-193.67
X206.858Y-171.602
X207.1Y-163.42
X207.29Y-143.552
X207.6Y-132.74
X207.74Y-176.38
X207.87Y-174.826
X208.79Y-165.39
X209.12Y-191.33
X209.362Y-207.772
X209.45Y-148.482
X209.46Y-193.63
X210.37Y-139.582
X211.25Y-139.362
X212.34Y-142.802
X212.4Y-191.29
X212.74Y-193.59
X213.0Y-198.275
X213.24Y-154.843
X213.53Y-149.112
X213.68Y-148.042
X214.39Y-134.58
X215.84Y-140.702
X216.162Y-208.4
X216.89Y-137.93
X217.27Y-184.366
X217.53Y-139.38
X217.65Y-146.29
X217.69Y-149.19
X217.73Y-152.47
X217.95Y-134.56
X218.059Y-168.011
X218.288Y-169.139
X219.1Y-138.125
X219.261Y-158.578
X219.948Y-185.251
X220.03Y-183.352
X220.329Y-169.336
X220.338Y-167.077
X221.2Y-138.1
X221.34Y-160.6
X221.71Y-195.68
X222.05Y-197.98
X222.462Y-208.425
X222.54Y-183.426
X222.68Y-148.88
X222.7Y-141.9
X222.834Y-167.616
X222.84Y-134.96
X223.062Y-203.175
X223.55Y-184.756
X223.688Y-162.891
X224.024Y-168.886
X224.61Y-195.64
X224.95Y-197.94
X224.971Y-146.532
X225.75Y-178.075
X226.993Y-144.454
X227.11Y-131.48
X227.89Y-195.6
X227.95Y-135.9
X228.23Y-197.9
X228.291Y-149.618
X228.35Y-134.65
X229.74Y-185.84
X229.85Y-187.75
X230.37Y-151.64
X230.425Y-204.35
X230.65Y-179.925
X230.654Y-170.767
X231.75Y-130.65
X231.79Y-163.05
X232.54Y-184.76
X232.64Y-190.385
X232.718Y-153.931
X232.94Y-188.985
X233.001Y-173.058
X233.89Y-195.065
X234.081Y-160.702
X234.71Y-169.895
X234.78Y-147.74
X234.84Y-171.055
X235.08Y-175.08
X235.094Y-205.232
X235.11Y-130.72
X235.674Y-202.192
X236.103Y-158.624
X236.26Y-149.132
X236.28Y-153.42
X237.22Y-179.5
X237.26Y-182.4
X237.3Y-185.68
X237.375Y-143.734
X238.68Y-169.395
X238.8Y-211.91
X238.93Y-151.66
X240.08Y-137.73
X240.28Y-166.495
X240.8Y-152.36
X241.584Y-185.421
X242.46Y-144.86
X242.484Y-197.972
X243.419Y-188.819
X243.425Y-156.75
X244.145Y-136.957
X244.82Y-146.12
X245.244Y-179.871
X245.7Y-173.045
X245.73Y-191.93
X245.84Y-144.61
X245.92Y-204.96
X246.21Y-170.125
X246.37Y-207.2
X248.63Y-191.89
X248.72Y-205.16
X248.76Y-195.64
X249.1Y-197.94
X249.691Y-179.278
X250.35Y-142.5
X251.66Y-195.6
X251.77Y-181.3
X251.91Y-191.85
X252.0Y-197.9
X252.2Y-130.95
X252.65Y-136.2
X252.86Y-173.31
X253.94Y-206.25
X254.118Y-183.591
X254.28Y-208.55
X254.727Y-174.696
X254.85Y-151.38
X254.882Y-171.231
X254.94Y-195.56
X255.28Y-197.86
X255.7Y-150.2
X255.7Y-153.47
X256.66Y-144.28
X256.749Y-172.617
X256.84Y-206.21
X256.976Y-177.743
X257.173Y-168.884
X257.18Y-208.51
X258.35Y-140.1
X258.527Y-145.666
X258.67Y-131.6
X259.04Y-170.269
X259.917Y-182.62
X260.12Y-206.17
X260.25Y-130.85
X260.46Y-208.47
X260.549Y-143.587
X260.72Y-186.51
X260.83Y-190.53
X261.57Y-131.56
X261.832Y-154.623
X262.045Y-153.647
X262.255Y-149.542
X262.84Y-141.239
X262.955Y-180.618
X263.117Y-152.6
X263.73Y-190.49
X264.77Y-159.15
X264.85Y-131.52
X264.905Y-180.625
X265.035Y-151.438
X265.254Y-150.462
X265.667Y-196.688
X267.01Y-190.45
X269.066Y-176.549
X269.21Y-138.727
X269.428Y-196.257
X269.49Y-134.912
X269.58Y-158.83
X270.281Y-140.106
X270.41Y-141.192
X270.74Y-136.153
X271.275Y-138.727
X271.29Y-200.727
X271.317Y-184.04
X271.71Y-152.43
X271.812Y-180.99
X271.82Y-195.877
X272.0Y-160.74
X272.86Y-156.26
X274.52Y-171.1
X274.73Y-155.71
X274.77Y-152.34
X276.002Y-178.19
X276.387Y-172.486
X276.542Y-169.021
X278.031Y-159.615
X278.19Y-206.63
X278.409Y-170.407
X278.52Y-181.86
X278.53Y-208.93
X278.833Y-166.674
X278.86Y-184.16
X279.43Y-136.17
X279.676Y-159.597
X279.97Y-131.91
X280.536Y-158.212
X280.7Y-168.059
X281.09Y-206.59
X281.42Y-181.82
X281.43Y-208.89
X281.76Y-184.12
X281.83Y-191.95
X282.17Y-194.25
X282.7Y-134.96
X282.899Y-174.365
X284.37Y-206.55
X284.7Y-181.78
X284.71Y-208.85
X284.73Y-191.91
X285.04Y-184.08
X285.07Y-194.21
X285.312Y-155.978
X287.553Y-162.972
X288.01Y-191.87
X288.35Y-194.17
X288.425Y-171.675
X289.949Y-159.887
X290.26Y-166.0
X292.22Y-151.92
X293.54Y-157.75
X294.14Y-154.0
X294.488Y-144.487
X296.18Y-166.73
X296.69Y-179.15
X296.725Y-138.05
X297.03Y-172.69
X297.18Y-142.645
X297.485Y-141.522
X297.565Y-145.873
X298.275Y-195.4
X299.1Y-135.275
X299.95Y-196.925
X300.385Y-151.442
X300.5Y-212.237
X300.559Y-169.931
X301.325Y-145.832
X301.575Y-212.325
X301.782Y-171.707
X302.125Y-140.425
X302.2Y-191.85
X302.375Y-193.15
X302.83Y-144.89
X302.875Y-201.475
X302.965Y-147.895
X304.4Y-146.63
X304.44Y-160.97
X304.45Y-193.075
X304.525Y-206.65
X304.78Y-163.27
X305.032Y-167.757
X305.582Y-140.308
X306.885Y-166.485
X307.075Y-199.825
X307.34Y-160.93
X307.68Y-163.23
X309.05Y-199.8
X309.08Y-197.86
X309.532Y-176.838
X309.553Y-180.632
X309.6Y-192.75
X309.73Y-133.54
X309.917Y-152.843
X309.995Y-168.785
X310.62Y-160.89
X310.845Y-152.375
X310.96Y-163.19
X311.78Y-194.025
X312.327Y-170.5
X312.567Y-151.632
X312.607Y-153.582
X313.03Y-135.15
X313.8Y-193.637
X314.135Y-164.845
X315.26Y-152.165
X315.925Y-201.275
X315.985Y-178.705
X316.165Y-153.31
X316.65Y-143.84
X316.99Y-146.14
X319.197Y-198.468
X319.55Y-143.8
X319.89Y-146.1
X322.597Y-202.718
X322.83Y-143.76
X323.17Y-146.06
X323.6Y-153.25
X330.23Y-144.18
X330.64Y-152.43
X330.98Y-154.73
X331.17Y-160.48
X331.188Y-148.815
X331.305Y-144.305
X331.51Y-162.78
X332.23Y-138.505
X333.54Y-152.39
X333.83Y-135.205
X333.88Y-154.69
X334.07Y-160.44
X334.08Y-142.955
X334.41Y-162.74
X335.739Y-178.059
X336.082Y-180.672
X336.719Y-175.849
X336.82Y-152.35
X337.16Y-154.65
X337.209Y-181.659
X337.35Y-160.4
X337.56Y-144.915
X337.69Y-162.7
X337.869Y-178.059
X338.18Y-146.4
X339.075Y-156.935
X340.43Y-208.8
X340.77Y-211.1
X342.07Y-129.38
X342.33Y-160.33
X342.7Y-135.18
X342.954Y-177.174
X343.33Y-208.76
X343.67Y-211.06
X344.97Y-129.34
X345.28Y-200.44
X345.62Y-202.74
X346.125Y-158.185
X346.61Y-208.72
X346.95Y-211.02
X348.18Y-200.4
X348.25Y-129.3
X348.31Y-181.53
X348.52Y-202.7
X349.2Y-157.385
X349.43Y-142.56
X349.43Y-193.03
X349.5Y-183.09
X349.77Y-195.33
X350.475Y-154.51
X351.46Y-200.36
X351.8Y-202.66
X352.069Y-162.608
X352.33Y-142.52
X352.33Y-192.99
X352.469Y-175.405
X352.482Y-168.28
X352.67Y-195.29
X353.48Y-128.79
X354.36Y-160.26
X355.27Y-140.18
X355.61Y-142.48
X355.61Y-192.95
X355.95Y-195.25
X356.382Y-158.181
X357.22Y-207.33
X357.56Y-209.63
X357.695Y-169.505
X357.744Y-170.855
X360.12Y-207.29
X360.252Y-135.577
X360.46Y-209.59
X360.86Y-128.99
X361.161Y-164.839
X361.88Y-174.91
X362.653Y-136.716
X362.717Y-188.398
X363.027Y-134.528
X363.075Y-157.327
X363.4Y-207.25
X363.675Y-166.452
X363.74Y-209.55
X363.747Y-176.296
X363.75Y-161.102
X363.76Y-128.95
X363.902Y-172.831
X364.37Y-201.01
X364.677Y-192.748
X364.71Y-203.31
X365.769Y-174.217
X365.773Y-135.897
X366.193Y-170.484
X366.362Y-194.603
X366.81Y-134.885
X367.04Y-128.91
X367.27Y-200.97
X367.5Y-183.28
X367.61Y-203.27
X368.06Y-171.869
X368.7Y-160.002
X369.012Y-189.453
X370.1Y-162.778
X370.29Y-148.17
X370.33Y-151.45
X370.37Y-154.35
X370.55Y-200.93
X370.89Y-203.23
X371.424Y-184.81
X371.474Y-186.38
X371.514Y-187.91
X372.537Y-193.353
X372.59Y-147.83
X372.63Y-151.11
X372.67Y-154.01
X372.781Y-192.334
X373.55Y-175.02
X373.59Y-178.3
X373.63Y-181.2
T8
X54.81Y-194.665
X56.93Y-201.2
X57.35Y-194.665
X59.47Y-201.2
X59.89Y-194.665
X60.93Y-185.085
X60.93Y-187.625
X60.93Y-190.165
X62.01Y-201.2
X62.43Y-194.665
X64.55Y-201.2
X64.97Y-194.665
X67.09Y-201.2
X67.51Y-194.665
X69.63Y-201.2
X70.05Y-194.665
X72.17Y-201.2
X114.9Y-164.15
X117.44Y-164.15
X117.45Y-154.365
X117.45Y-156.905
X121.96Y-188.775
X121.96Y-191.315
X177.13Y-195.592
X178.75Y-153.36
X178.75Y-155.9
X179.67Y-195.592
X213.35Y-185.26
X213.35Y-187.8
X213.538Y-166.552
X213.538Y-169.092
X268.9Y-145.397
X271.44Y-145.397
X305.875Y-151.775
X305.875Y-154.315
X336.079Y-171.334
X338.619Y-171.334
X356.29Y-134.68
X356.29Y-137.22
T6
X49.01Y-176.8G85X48.36Y-176.8
G05
X49.01Y-183.8G85X48.36Y-183.8
G05
T7
X51.385Y-177.65G85X51.385Y-177.95
G05
X51.385Y-182.65G85X51.385Y-182.95
G05
T9
X59.98Y-165.775G85X59.98Y-168.775
G05
X65.16Y-165.775G85X65.16Y-168.775
G05
T0
M30
