G04 #@! TF.GenerationSoftware,KiCad,Pcbnew,(6.0.10)*
G04 #@! TF.CreationDate,2024-12-09T21:13:33+01:00*
G04 #@! TF.ProjectId,3_12_2024_MainBoardMCUwInstruments,335f3132-5f32-4303-9234-5f4d61696e42,rev?*
G04 #@! TF.SameCoordinates,Original*
G04 #@! TF.FileFunction,Paste,Top*
G04 #@! TF.FilePolarity,Positive*
%FSLAX46Y46*%
G04 Gerber Fmt 4.6, Leading zero omitted, Abs format (unit mm)*
G04 Created by KiCad (PCBNEW (6.0.10)) date 2024-12-09 21:13:33*
%MOMM*%
%LPD*%
G01*
G04 APERTURE LIST*
G04 Aperture macros list*
%AMRoundRect*
0 Rectangle with rounded corners*
0 $1 Rounding radius*
0 $2 $3 $4 $5 $6 $7 $8 $9 X,Y pos of 4 corners*
0 Add a 4 corners polygon primitive as box body*
4,1,4,$2,$3,$4,$5,$6,$7,$8,$9,$2,$3,0*
0 Add four circle primitives for the rounded corners*
1,1,$1+$1,$2,$3*
1,1,$1+$1,$4,$5*
1,1,$1+$1,$6,$7*
1,1,$1+$1,$8,$9*
0 Add four rect primitives between the rounded corners*
20,1,$1+$1,$2,$3,$4,$5,0*
20,1,$1+$1,$4,$5,$6,$7,0*
20,1,$1+$1,$6,$7,$8,$9,0*
20,1,$1+$1,$8,$9,$2,$3,0*%
%AMRotRect*
0 Rectangle, with rotation*
0 The origin of the aperture is its center*
0 $1 length*
0 $2 width*
0 $3 Rotation angle, in degrees counterclockwise*
0 Add horizontal line*
21,1,$1,$2,0,0,$3*%
%AMFreePoly0*
4,1,57,0.194009,0.449029,0.214144,0.449029,0.231583,0.438961,0.251037,0.433748,0.265277,0.419508,0.282717,0.409439,0.409439,0.282717,0.419508,0.265277,0.433748,0.251037,0.438960,0.231585,0.449030,0.214144,0.449030,0.194005,0.454242,0.174554,0.454242,-0.174554,0.449030,-0.194005,0.449030,-0.214144,0.438960,-0.231585,0.433748,-0.251037,0.419508,-0.265277,0.409439,-0.282717,
0.282717,-0.409439,0.265277,-0.419508,0.251037,-0.433748,0.231583,-0.438961,0.214144,-0.449029,0.194009,-0.449029,0.174554,-0.454242,-0.174554,-0.454242,-0.194005,-0.449030,-0.214144,-0.449030,-0.231585,-0.438960,-0.251037,-0.433748,-0.265277,-0.419508,-0.282717,-0.409439,-0.409439,-0.282717,-0.419508,-0.265277,-0.433748,-0.251037,-0.438961,-0.231583,-0.449029,-0.214144,-0.449029,-0.194009,
-0.454242,-0.174554,-0.454242,0.174554,-0.449029,0.194009,-0.449029,0.214144,-0.438961,0.231583,-0.433748,0.251037,-0.419508,0.265277,-0.409439,0.282717,-0.282717,0.409439,-0.265277,0.419508,-0.251037,0.433748,-0.231585,0.438960,-0.214144,0.449030,-0.194005,0.449030,-0.174554,0.454242,0.174554,0.454242,0.194009,0.449029,0.194009,0.449029,$1*%
G04 Aperture macros list end*
%ADD10RoundRect,0.250000X-0.325000X-1.100000X0.325000X-1.100000X0.325000X1.100000X-0.325000X1.100000X0*%
%ADD11R,0.250000X0.360000*%
%ADD12RoundRect,0.250000X-0.262500X-0.450000X0.262500X-0.450000X0.262500X0.450000X-0.262500X0.450000X0*%
%ADD13RoundRect,0.200000X-0.275000X0.200000X-0.275000X-0.200000X0.275000X-0.200000X0.275000X0.200000X0*%
%ADD14RoundRect,0.250000X-0.325000X-0.650000X0.325000X-0.650000X0.325000X0.650000X-0.325000X0.650000X0*%
%ADD15R,0.360000X0.250000*%
%ADD16RoundRect,0.135000X-0.135000X-0.185000X0.135000X-0.185000X0.135000X0.185000X-0.135000X0.185000X0*%
%ADD17RoundRect,0.225000X-0.250000X0.225000X-0.250000X-0.225000X0.250000X-0.225000X0.250000X0.225000X0*%
%ADD18RoundRect,0.200000X0.275000X-0.200000X0.275000X0.200000X-0.275000X0.200000X-0.275000X-0.200000X0*%
%ADD19RoundRect,0.250000X-0.250000X-0.475000X0.250000X-0.475000X0.250000X0.475000X-0.250000X0.475000X0*%
%ADD20RoundRect,0.200000X-0.200000X-0.275000X0.200000X-0.275000X0.200000X0.275000X-0.200000X0.275000X0*%
%ADD21RoundRect,0.225000X-0.225000X-0.250000X0.225000X-0.250000X0.225000X0.250000X-0.225000X0.250000X0*%
%ADD22RoundRect,0.155000X0.212500X0.155000X-0.212500X0.155000X-0.212500X-0.155000X0.212500X-0.155000X0*%
%ADD23RoundRect,0.155000X0.155000X-0.212500X0.155000X0.212500X-0.155000X0.212500X-0.155000X-0.212500X0*%
%ADD24RoundRect,0.250000X1.100000X-0.325000X1.100000X0.325000X-1.100000X0.325000X-1.100000X-0.325000X0*%
%ADD25RoundRect,0.150000X0.587500X0.150000X-0.587500X0.150000X-0.587500X-0.150000X0.587500X-0.150000X0*%
%ADD26RoundRect,0.155000X-0.155000X0.212500X-0.155000X-0.212500X0.155000X-0.212500X0.155000X0.212500X0*%
%ADD27RoundRect,0.155000X-0.212500X-0.155000X0.212500X-0.155000X0.212500X0.155000X-0.212500X0.155000X0*%
%ADD28RoundRect,0.200000X0.200000X0.275000X-0.200000X0.275000X-0.200000X-0.275000X0.200000X-0.275000X0*%
%ADD29RoundRect,0.225000X0.250000X-0.225000X0.250000X0.225000X-0.250000X0.225000X-0.250000X-0.225000X0*%
%ADD30RoundRect,0.250000X1.100000X-0.412500X1.100000X0.412500X-1.100000X0.412500X-1.100000X-0.412500X0*%
%ADD31RoundRect,0.150000X-0.825000X-0.150000X0.825000X-0.150000X0.825000X0.150000X-0.825000X0.150000X0*%
%ADD32RoundRect,0.150000X0.825000X0.150000X-0.825000X0.150000X-0.825000X-0.150000X0.825000X-0.150000X0*%
%ADD33R,2.800000X2.200000*%
%ADD34R,2.800000X2.800000*%
%ADD35R,1.100000X0.400000*%
%ADD36RoundRect,0.250000X-0.550000X1.500000X-0.550000X-1.500000X0.550000X-1.500000X0.550000X1.500000X0*%
%ADD37RoundRect,0.155000X0.259862X-0.040659X-0.040659X0.259862X-0.259862X0.040659X0.040659X-0.259862X0*%
%ADD38RoundRect,0.150000X-0.150000X0.587500X-0.150000X-0.587500X0.150000X-0.587500X0.150000X0.587500X0*%
%ADD39RoundRect,0.250000X-0.475000X0.250000X-0.475000X-0.250000X0.475000X-0.250000X0.475000X0.250000X0*%
%ADD40RoundRect,0.250000X0.262500X0.450000X-0.262500X0.450000X-0.262500X-0.450000X0.262500X-0.450000X0*%
%ADD41R,0.400000X1.100000*%
%ADD42RoundRect,0.125000X-0.425000X0.125000X-0.425000X-0.125000X0.425000X-0.125000X0.425000X0.125000X0*%
%ADD43RoundRect,0.250000X-0.600000X0.350000X-0.600000X-0.350000X0.600000X-0.350000X0.600000X0.350000X0*%
%ADD44RoundRect,0.250000X1.500000X0.550000X-1.500000X0.550000X-1.500000X-0.550000X1.500000X-0.550000X0*%
%ADD45RoundRect,0.250000X0.325000X0.650000X-0.325000X0.650000X-0.325000X-0.650000X0.325000X-0.650000X0*%
%ADD46RoundRect,0.150000X-0.587500X-0.150000X0.587500X-0.150000X0.587500X0.150000X-0.587500X0.150000X0*%
%ADD47RoundRect,0.150000X-0.150000X0.825000X-0.150000X-0.825000X0.150000X-0.825000X0.150000X0.825000X0*%
%ADD48RoundRect,0.250000X0.412500X1.100000X-0.412500X1.100000X-0.412500X-1.100000X0.412500X-1.100000X0*%
%ADD49RoundRect,0.150000X0.150000X-0.587500X0.150000X0.587500X-0.150000X0.587500X-0.150000X-0.587500X0*%
%ADD50RoundRect,0.250000X0.250000X0.475000X-0.250000X0.475000X-0.250000X-0.475000X0.250000X-0.475000X0*%
%ADD51RoundRect,0.225000X-0.017678X0.335876X-0.335876X0.017678X0.017678X-0.335876X0.335876X-0.017678X0*%
%ADD52RoundRect,0.250000X0.325000X1.100000X-0.325000X1.100000X-0.325000X-1.100000X0.325000X-1.100000X0*%
%ADD53RoundRect,0.250000X-0.337500X-0.475000X0.337500X-0.475000X0.337500X0.475000X-0.337500X0.475000X0*%
%ADD54RoundRect,0.250000X-1.100000X0.325000X-1.100000X-0.325000X1.100000X-0.325000X1.100000X0.325000X0*%
%ADD55R,1.200000X0.900000*%
%ADD56RoundRect,0.250000X-0.412500X-0.650000X0.412500X-0.650000X0.412500X0.650000X-0.412500X0.650000X0*%
%ADD57R,0.711200X0.228600*%
%ADD58RoundRect,0.150000X-0.512500X-0.150000X0.512500X-0.150000X0.512500X0.150000X-0.512500X0.150000X0*%
%ADD59R,1.500000X2.200000*%
%ADD60RoundRect,0.155000X-0.259862X0.040659X0.040659X-0.259862X0.259862X-0.040659X-0.040659X0.259862X0*%
%ADD61R,2.200000X1.500000*%
%ADD62RoundRect,0.135000X0.135000X0.185000X-0.135000X0.185000X-0.135000X-0.185000X0.135000X-0.185000X0*%
%ADD63R,3.400000X0.980000*%
%ADD64RoundRect,0.250000X0.475000X-0.250000X0.475000X0.250000X-0.475000X0.250000X-0.475000X-0.250000X0*%
%ADD65RoundRect,0.155000X-0.040659X-0.259862X0.259862X0.040659X0.040659X0.259862X-0.259862X-0.040659X0*%
%ADD66RoundRect,0.225000X0.225000X0.250000X-0.225000X0.250000X-0.225000X-0.250000X0.225000X-0.250000X0*%
%ADD67RoundRect,0.250000X0.550000X-1.500000X0.550000X1.500000X-0.550000X1.500000X-0.550000X-1.500000X0*%
%ADD68RoundRect,0.250000X-0.650000X0.325000X-0.650000X-0.325000X0.650000X-0.325000X0.650000X0.325000X0*%
%ADD69RoundRect,0.135000X-0.185000X0.135000X-0.185000X-0.135000X0.185000X-0.135000X0.185000X0.135000X0*%
%ADD70RoundRect,0.225000X-0.335876X-0.017678X-0.017678X-0.335876X0.335876X0.017678X0.017678X0.335876X0*%
%ADD71RoundRect,0.155000X0.040659X0.259862X-0.259862X-0.040659X-0.040659X-0.259862X0.259862X0.040659X0*%
%ADD72RoundRect,0.250000X-1.500000X-0.550000X1.500000X-0.550000X1.500000X0.550000X-1.500000X0.550000X0*%
%ADD73R,0.750000X2.100000*%
%ADD74RoundRect,0.250000X-0.450000X0.262500X-0.450000X-0.262500X0.450000X-0.262500X0.450000X0.262500X0*%
%ADD75RoundRect,0.150000X0.150000X-0.825000X0.150000X0.825000X-0.150000X0.825000X-0.150000X-0.825000X0*%
%ADD76R,0.900000X1.200000*%
%ADD77RoundRect,0.250000X0.450000X-0.262500X0.450000X0.262500X-0.450000X0.262500X-0.450000X-0.262500X0*%
%ADD78RoundRect,0.250000X-0.159099X0.512652X-0.512652X0.159099X0.159099X-0.512652X0.512652X-0.159099X0*%
%ADD79R,2.500000X2.300000*%
%ADD80RoundRect,0.250000X0.337500X0.475000X-0.337500X0.475000X-0.337500X-0.475000X0.337500X-0.475000X0*%
%ADD81RoundRect,0.200000X0.053033X-0.335876X0.335876X-0.053033X-0.053033X0.335876X-0.335876X0.053033X0*%
%ADD82O,0.950000X1.250000*%
%ADD83O,1.550000X0.890000*%
%ADD84R,1.350000X0.400000*%
%ADD85R,1.550000X1.500000*%
%ADD86R,1.550000X1.200000*%
%ADD87RoundRect,0.147500X0.017678X-0.226274X0.226274X-0.017678X-0.017678X0.226274X-0.226274X0.017678X0*%
%ADD88RoundRect,0.250000X1.250000X0.550000X-1.250000X0.550000X-1.250000X-0.550000X1.250000X-0.550000X0*%
%ADD89RoundRect,0.225000X0.017678X-0.335876X0.335876X-0.017678X-0.017678X0.335876X-0.335876X0.017678X0*%
%ADD90FreePoly0,0.000000*%
%ADD91RoundRect,0.062500X-0.325000X-0.062500X0.325000X-0.062500X0.325000X0.062500X-0.325000X0.062500X0*%
%ADD92RoundRect,0.062500X-0.062500X-0.325000X0.062500X-0.325000X0.062500X0.325000X-0.062500X0.325000X0*%
%ADD93RoundRect,0.075000X-0.441942X-0.548008X0.548008X0.441942X0.441942X0.548008X-0.548008X-0.441942X0*%
%ADD94RoundRect,0.075000X0.441942X-0.548008X0.548008X-0.441942X-0.441942X0.548008X-0.548008X0.441942X0*%
%ADD95RotRect,0.900000X0.800000X225.000000*%
G04 APERTURE END LIST*
D10*
X193450000Y-206775000D03*
X196400000Y-206775000D03*
D11*
X208520000Y-151365000D03*
X208520000Y-150525000D03*
D12*
X158451119Y-180511119D03*
X160276119Y-180511119D03*
D13*
X273200000Y-193812500D03*
X273200000Y-195462500D03*
D14*
X77150000Y-171500000D03*
X80100000Y-171500000D03*
D15*
X307682500Y-169730000D03*
X306842500Y-169730000D03*
D16*
X85322500Y-161800000D03*
X86342500Y-161800000D03*
D11*
X209490000Y-150492500D03*
X209490000Y-151332500D03*
D17*
X300415000Y-148887500D03*
X300415000Y-150437500D03*
D18*
X282356250Y-162712500D03*
X282356250Y-161062500D03*
D19*
X366349500Y-192770500D03*
X368249500Y-192770500D03*
D13*
X243644000Y-179206250D03*
X243644000Y-180856250D03*
D20*
X220065000Y-179766231D03*
X221715000Y-179766231D03*
D21*
X227895000Y-179885000D03*
X229445000Y-179885000D03*
D18*
X122935392Y-204857500D03*
X122935392Y-203207500D03*
D22*
X367482000Y-186180500D03*
X366347000Y-186180500D03*
D23*
X259577500Y-181662500D03*
X259577500Y-180527500D03*
D24*
X100775000Y-165375000D03*
X100775000Y-162425000D03*
D25*
X94222500Y-156460000D03*
X94222500Y-154560000D03*
X92347500Y-155510000D03*
D13*
X174790000Y-131105000D03*
X174790000Y-132755000D03*
D26*
X289136250Y-155470000D03*
X289136250Y-156605000D03*
D27*
X155456119Y-173531119D03*
X156591119Y-173531119D03*
D28*
X213985000Y-138002500D03*
X212335000Y-138002500D03*
D29*
X146520000Y-158068750D03*
X146520000Y-156518750D03*
D13*
X341229000Y-180374000D03*
X341229000Y-182024000D03*
D28*
X183925000Y-149700000D03*
X182275000Y-149700000D03*
D20*
X268985000Y-180990000D03*
X270635000Y-180990000D03*
X121712500Y-138150000D03*
X123362500Y-138150000D03*
D18*
X367400000Y-163002500D03*
X367400000Y-161352500D03*
D27*
X120795000Y-141275000D03*
X121930000Y-141275000D03*
D13*
X153443619Y-179186119D03*
X153443619Y-180836119D03*
D11*
X158973619Y-175261119D03*
X158973619Y-174421119D03*
D20*
X366269500Y-189460500D03*
X367919500Y-189460500D03*
D18*
X155873619Y-182296119D03*
X155873619Y-180646119D03*
D21*
X75875000Y-160550000D03*
X77425000Y-160550000D03*
D13*
X113250000Y-149867500D03*
X113250000Y-151517500D03*
D20*
X237905000Y-144500000D03*
X239555000Y-144500000D03*
D18*
X318750000Y-195625000D03*
X318750000Y-193975000D03*
X113439500Y-176137750D03*
X113439500Y-174487750D03*
D30*
X56500000Y-138162500D03*
X56500000Y-135037500D03*
D10*
X204100000Y-182350000D03*
X207050000Y-182350000D03*
D31*
X267715000Y-132377500D03*
X267715000Y-133647500D03*
X267715000Y-134917500D03*
X267715000Y-136187500D03*
X267715000Y-137457500D03*
X267715000Y-138727500D03*
X267715000Y-139997500D03*
X267715000Y-141267500D03*
X272665000Y-141267500D03*
X272665000Y-139997500D03*
X272665000Y-138727500D03*
X272665000Y-137457500D03*
X272665000Y-136187500D03*
X272665000Y-134917500D03*
X272665000Y-133647500D03*
X272665000Y-132377500D03*
D26*
X213110000Y-144735000D03*
X213110000Y-145870000D03*
D28*
X201819608Y-194997370D03*
X200169608Y-194997370D03*
D25*
X267685000Y-198567500D03*
X267685000Y-196667500D03*
X265810000Y-197617500D03*
D20*
X359615000Y-163520000D03*
X361265000Y-163520000D03*
X115614500Y-171312750D03*
X117264500Y-171312750D03*
D13*
X151700000Y-154408750D03*
X151700000Y-156058750D03*
X181375000Y-152175000D03*
X181375000Y-153825000D03*
D18*
X136567500Y-192800000D03*
X136567500Y-191150000D03*
D23*
X311875000Y-167482500D03*
X311875000Y-166347500D03*
D32*
X120454500Y-181772750D03*
X120454500Y-180502750D03*
X120454500Y-179232750D03*
X120454500Y-177962750D03*
X120454500Y-176692750D03*
X120454500Y-175422750D03*
X120454500Y-174152750D03*
X120454500Y-172882750D03*
X115504500Y-172882750D03*
X115504500Y-174152750D03*
X115504500Y-175422750D03*
X115504500Y-176692750D03*
X115504500Y-177962750D03*
X115504500Y-179232750D03*
X115504500Y-180502750D03*
X115504500Y-181772750D03*
D11*
X234190000Y-146470000D03*
X234190000Y-145630000D03*
D33*
X350200000Y-135000000D03*
X342800000Y-133000000D03*
D34*
X342800000Y-142400000D03*
D35*
X305915000Y-197875000D03*
X305915000Y-198525000D03*
X305915000Y-199175000D03*
X305915000Y-199825000D03*
X310215000Y-199825000D03*
X310215000Y-199175000D03*
X310215000Y-198525000D03*
X310215000Y-197875000D03*
D26*
X104050000Y-147050000D03*
X104050000Y-148185000D03*
D28*
X138832500Y-195275000D03*
X137182500Y-195275000D03*
D18*
X122489500Y-174587750D03*
X122489500Y-172937750D03*
D23*
X152960000Y-155411250D03*
X152960000Y-154276250D03*
D28*
X94215000Y-153015000D03*
X92565000Y-153015000D03*
X201819608Y-193472370D03*
X200169608Y-193472370D03*
D36*
X253135000Y-148965000D03*
X253135000Y-154565000D03*
D20*
X298770000Y-147407500D03*
X300420000Y-147407500D03*
D27*
X194777108Y-195062370D03*
X195912108Y-195062370D03*
D20*
X268155000Y-142802500D03*
X269805000Y-142802500D03*
D18*
X242463750Y-200727500D03*
X242463750Y-199077500D03*
D13*
X220337500Y-203225000D03*
X220337500Y-204875000D03*
D22*
X166541119Y-183281119D03*
X165406119Y-183281119D03*
D18*
X129925000Y-171430000D03*
X129925000Y-169780000D03*
D15*
X96457500Y-155260000D03*
X97297500Y-155260000D03*
D20*
X189600000Y-171913489D03*
X191250000Y-171913489D03*
D37*
X91951283Y-204476283D03*
X91148717Y-203673717D03*
D38*
X160283619Y-182533619D03*
X158383619Y-182533619D03*
X159333619Y-184408619D03*
D20*
X364072500Y-130972500D03*
X365722500Y-130972500D03*
D18*
X98231250Y-159610000D03*
X98231250Y-157960000D03*
D13*
X157321250Y-138400000D03*
X157321250Y-140050000D03*
D35*
X346100000Y-155435000D03*
X346100000Y-156085000D03*
X346100000Y-156735000D03*
X346100000Y-157385000D03*
X350400000Y-157385000D03*
X350400000Y-156735000D03*
X350400000Y-156085000D03*
X350400000Y-155435000D03*
D15*
X182730000Y-206775000D03*
X183570000Y-206775000D03*
D20*
X280766250Y-159617500D03*
X282416250Y-159617500D03*
D27*
X298002500Y-138370000D03*
X299137500Y-138370000D03*
D20*
X190275000Y-207650000D03*
X191925000Y-207650000D03*
D37*
X85316271Y-204874216D03*
X84513705Y-204071650D03*
D39*
X149233619Y-185088619D03*
X149233619Y-186988619D03*
D13*
X233320000Y-135825000D03*
X233320000Y-137475000D03*
X134200000Y-155475000D03*
X134200000Y-157125000D03*
D18*
X150175000Y-161138750D03*
X150175000Y-159488750D03*
X298805000Y-150550000D03*
X298805000Y-148900000D03*
D28*
X142052500Y-154485000D03*
X140402500Y-154485000D03*
D20*
X240775000Y-131850000D03*
X242425000Y-131850000D03*
D26*
X104050000Y-149275000D03*
X104050000Y-150410000D03*
D40*
X163676119Y-185781119D03*
X161851119Y-185781119D03*
D28*
X362022500Y-130972500D03*
X360372500Y-130972500D03*
D23*
X158571250Y-139392500D03*
X158571250Y-138257500D03*
D18*
X316350000Y-200000000D03*
X316350000Y-198350000D03*
D41*
X207305000Y-146772500D03*
X207955000Y-146772500D03*
X208605000Y-146772500D03*
X209255000Y-146772500D03*
X209255000Y-142472500D03*
X208605000Y-142472500D03*
X207955000Y-142472500D03*
X207305000Y-142472500D03*
D28*
X363392000Y-193098000D03*
X361742000Y-193098000D03*
D18*
X352000000Y-156860000D03*
X352000000Y-155210000D03*
D20*
X174475000Y-203150000D03*
X176125000Y-203150000D03*
D27*
X58832500Y-139500000D03*
X59967500Y-139500000D03*
D18*
X138985000Y-172135000D03*
X138985000Y-170485000D03*
D13*
X240134000Y-182976250D03*
X240134000Y-184626250D03*
D18*
X188125000Y-167413489D03*
X188125000Y-165763489D03*
D28*
X220845000Y-188766231D03*
X219195000Y-188766231D03*
D11*
X157143619Y-181971119D03*
X157143619Y-182811119D03*
D18*
X356419500Y-175504750D03*
X356419500Y-173854750D03*
D20*
X350294500Y-171929750D03*
X351944500Y-171929750D03*
D28*
X218685000Y-179776231D03*
X217035000Y-179776231D03*
D18*
X342025000Y-158435000D03*
X342025000Y-156785000D03*
D28*
X300900000Y-195325000D03*
X299250000Y-195325000D03*
D27*
X153226119Y-176991119D03*
X154361119Y-176991119D03*
D28*
X153295000Y-159993750D03*
X151645000Y-159993750D03*
D18*
X138485392Y-205457500D03*
X138485392Y-203807500D03*
X107400000Y-156367500D03*
X107400000Y-154717500D03*
D20*
X155598619Y-176301119D03*
X157248619Y-176301119D03*
D18*
X179125000Y-172038489D03*
X179125000Y-170388489D03*
D28*
X183819608Y-192622370D03*
X182169608Y-192622370D03*
X63000000Y-140700000D03*
X61350000Y-140700000D03*
D27*
X308562500Y-169730000D03*
X309697500Y-169730000D03*
D22*
X94107500Y-151765000D03*
X92972500Y-151765000D03*
D13*
X271577500Y-176465000D03*
X271577500Y-178115000D03*
D28*
X65255000Y-187590000D03*
X63605000Y-187590000D03*
X101670625Y-172087500D03*
X100020625Y-172087500D03*
D42*
X49862500Y-199387500D03*
X49862500Y-200187500D03*
X49862500Y-200987500D03*
X49862500Y-201787500D03*
X49862500Y-202587500D03*
X49862500Y-203387500D03*
X49862500Y-204187500D03*
X49862500Y-204987500D03*
X49862500Y-205787500D03*
X49862500Y-206587500D03*
X49862500Y-207387500D03*
X49862500Y-208187500D03*
X49862500Y-208987500D03*
X49862500Y-209787500D03*
D43*
X51262500Y-211087500D03*
X51262500Y-198087500D03*
D31*
X181399608Y-180682370D03*
X181399608Y-181952370D03*
X181399608Y-183222370D03*
X181399608Y-184492370D03*
X181399608Y-185762370D03*
X181399608Y-187032370D03*
X181399608Y-188302370D03*
X181399608Y-189572370D03*
X186349608Y-189572370D03*
X186349608Y-188302370D03*
X186349608Y-187032370D03*
X186349608Y-185762370D03*
X186349608Y-184492370D03*
X186349608Y-183222370D03*
X186349608Y-181952370D03*
X186349608Y-180682370D03*
D20*
X235345000Y-146040000D03*
X236995000Y-146040000D03*
D44*
X64725000Y-153775000D03*
X59125000Y-153775000D03*
D25*
X285366250Y-176667500D03*
X285366250Y-174767500D03*
X283491250Y-175717500D03*
D20*
X207565000Y-140872500D03*
X209215000Y-140872500D03*
D45*
X83275000Y-147500000D03*
X80325000Y-147500000D03*
D14*
X77150000Y-166900000D03*
X80100000Y-166900000D03*
D28*
X186750000Y-158700000D03*
X185100000Y-158700000D03*
D27*
X240442500Y-145840000D03*
X241577500Y-145840000D03*
D46*
X269500000Y-193187500D03*
X269500000Y-195087500D03*
X271375000Y-194137500D03*
D27*
X105207500Y-157625000D03*
X106342500Y-157625000D03*
X159626119Y-190021119D03*
X160761119Y-190021119D03*
D19*
X121837500Y-143325000D03*
X123737500Y-143325000D03*
D47*
X191820000Y-151725000D03*
X190550000Y-151725000D03*
X189280000Y-151725000D03*
X188010000Y-151725000D03*
X186740000Y-151725000D03*
X185470000Y-151725000D03*
X184200000Y-151725000D03*
X182930000Y-151725000D03*
X182930000Y-156675000D03*
X184200000Y-156675000D03*
X185470000Y-156675000D03*
X186740000Y-156675000D03*
X188010000Y-156675000D03*
X189280000Y-156675000D03*
X190550000Y-156675000D03*
X191820000Y-156675000D03*
X369377500Y-133002500D03*
X368107500Y-133002500D03*
X366837500Y-133002500D03*
X365567500Y-133002500D03*
X364297500Y-133002500D03*
X363027500Y-133002500D03*
X361757500Y-133002500D03*
X360487500Y-133002500D03*
X360487500Y-137952500D03*
X361757500Y-137952500D03*
X363027500Y-137952500D03*
X364297500Y-137952500D03*
X365567500Y-137952500D03*
X366837500Y-137952500D03*
X368107500Y-137952500D03*
X369377500Y-137952500D03*
D13*
X205670000Y-142557500D03*
X205670000Y-144207500D03*
D28*
X180875000Y-134470000D03*
X179225000Y-134470000D03*
D27*
X206662500Y-169440000D03*
X207797500Y-169440000D03*
D13*
X301625000Y-199875000D03*
X301625000Y-201525000D03*
D48*
X53962500Y-134250000D03*
X50837500Y-134250000D03*
D20*
X210835000Y-149502500D03*
X212485000Y-149502500D03*
D18*
X242400000Y-156795000D03*
X242400000Y-155145000D03*
D35*
X151385000Y-138235000D03*
X151385000Y-138885000D03*
X151385000Y-139535000D03*
X151385000Y-140185000D03*
X155685000Y-140185000D03*
X155685000Y-139535000D03*
X155685000Y-138885000D03*
X155685000Y-138235000D03*
D20*
X128092500Y-186300000D03*
X129742500Y-186300000D03*
D11*
X149830000Y-195112500D03*
X149830000Y-195952500D03*
D18*
X361097000Y-191643000D03*
X361097000Y-189993000D03*
D28*
X272825000Y-142802500D03*
X271175000Y-142802500D03*
D22*
X190567500Y-167513489D03*
X189432500Y-167513489D03*
D18*
X305825000Y-194850000D03*
X305825000Y-193200000D03*
D49*
X239013750Y-200650000D03*
X240913750Y-200650000D03*
X239963750Y-198775000D03*
D28*
X217795000Y-188776231D03*
X216145000Y-188776231D03*
D20*
X311832500Y-148222500D03*
X313482500Y-148222500D03*
D36*
X320700400Y-197098000D03*
X320700400Y-202698000D03*
D13*
X301955000Y-147057500D03*
X301955000Y-148707500D03*
D20*
X366274500Y-190980500D03*
X367924500Y-190980500D03*
D23*
X259577500Y-179432500D03*
X259577500Y-178297500D03*
D20*
X181924608Y-191102370D03*
X183574608Y-191102370D03*
D41*
X229795000Y-188960000D03*
X230445000Y-188960000D03*
X231095000Y-188960000D03*
X231745000Y-188960000D03*
X231745000Y-184660000D03*
X231095000Y-184660000D03*
X230445000Y-184660000D03*
X229795000Y-184660000D03*
D23*
X284446250Y-154645000D03*
X284446250Y-153510000D03*
D28*
X313850000Y-192275000D03*
X312200000Y-192275000D03*
X310425000Y-196275000D03*
X308775000Y-196275000D03*
D50*
X214412500Y-208550000D03*
X212512500Y-208550000D03*
D35*
X128555392Y-203347500D03*
X128555392Y-203997500D03*
X128555392Y-204647500D03*
X128555392Y-205297500D03*
X132855392Y-205297500D03*
X132855392Y-204647500D03*
X132855392Y-203997500D03*
X132855392Y-203347500D03*
D18*
X143150000Y-131925000D03*
X143150000Y-130275000D03*
D28*
X165978619Y-182031119D03*
X164328619Y-182031119D03*
D23*
X363700000Y-165370000D03*
X363700000Y-164235000D03*
D20*
X155177892Y-196362630D03*
X156827892Y-196362630D03*
D28*
X307400000Y-196275000D03*
X305750000Y-196275000D03*
D41*
X334055000Y-139755000D03*
X333405000Y-139755000D03*
X332755000Y-139755000D03*
X332105000Y-139755000D03*
X332105000Y-144055000D03*
X332755000Y-144055000D03*
X333405000Y-144055000D03*
X334055000Y-144055000D03*
D13*
X267707500Y-193542500D03*
X267707500Y-195192500D03*
D23*
X343275000Y-158052500D03*
X343275000Y-156917500D03*
D38*
X160263619Y-186453619D03*
X158363619Y-186453619D03*
X159313619Y-188328619D03*
D18*
X304075000Y-201525000D03*
X304075000Y-199875000D03*
D23*
X335450000Y-143317500D03*
X335450000Y-142182500D03*
D18*
X361925000Y-162027500D03*
X361925000Y-160377500D03*
D20*
X369535000Y-130970000D03*
X371185000Y-130970000D03*
D18*
X215860000Y-143467500D03*
X215860000Y-141817500D03*
D20*
X139972500Y-189865000D03*
X141622500Y-189865000D03*
X139632500Y-188235000D03*
X141282500Y-188235000D03*
D33*
X260200000Y-135000000D03*
X252800000Y-133000000D03*
D34*
X252800000Y-142400000D03*
D51*
X91373008Y-205651992D03*
X90276992Y-206748008D03*
D18*
X269037500Y-179535000D03*
X269037500Y-177885000D03*
D20*
X331715000Y-145640000D03*
X333365000Y-145640000D03*
D18*
X341229000Y-175994000D03*
X341229000Y-174344000D03*
D46*
X307677500Y-192800000D03*
X307677500Y-194700000D03*
X309552500Y-193750000D03*
D20*
X265935000Y-181130000D03*
X267585000Y-181130000D03*
D18*
X154780000Y-158288750D03*
X154780000Y-156638750D03*
D13*
X141557500Y-191300000D03*
X141557500Y-192950000D03*
D20*
X259752500Y-175350000D03*
X261402500Y-175350000D03*
D18*
X302775000Y-198475000D03*
X302775000Y-196825000D03*
D52*
X166850000Y-161225000D03*
X163900000Y-161225000D03*
D18*
X134455392Y-205437500D03*
X134455392Y-203787500D03*
D28*
X124550000Y-160150000D03*
X122900000Y-160150000D03*
D18*
X231140000Y-193880000D03*
X231140000Y-192230000D03*
X290416250Y-158662500D03*
X290416250Y-157012500D03*
X264340000Y-183425000D03*
X264340000Y-181775000D03*
D24*
X97525000Y-165375000D03*
X97525000Y-162425000D03*
D20*
X234875000Y-144500000D03*
X236525000Y-144500000D03*
D25*
X354632000Y-175354750D03*
X354632000Y-173454750D03*
X352757000Y-174404750D03*
D18*
X353780000Y-131705000D03*
X353780000Y-130055000D03*
D53*
X61500000Y-146450000D03*
X63575000Y-146450000D03*
D20*
X207345000Y-160690000D03*
X208995000Y-160690000D03*
D19*
X150723619Y-188968619D03*
X152623619Y-188968619D03*
D13*
X331675000Y-186850000D03*
X331675000Y-188500000D03*
D27*
X364932500Y-157752500D03*
X366067500Y-157752500D03*
D23*
X99481250Y-159402500D03*
X99481250Y-158267500D03*
X283186250Y-154375000D03*
X283186250Y-153240000D03*
D54*
X305750000Y-128700000D03*
X305750000Y-131650000D03*
D15*
X262380000Y-183600000D03*
X263220000Y-183600000D03*
D28*
X339636500Y-173954000D03*
X337986500Y-173954000D03*
D18*
X364947200Y-166991800D03*
X364947200Y-165341800D03*
D20*
X208700000Y-152552500D03*
X210350000Y-152552500D03*
D18*
X121787500Y-136687500D03*
X121787500Y-135037500D03*
D33*
X290200000Y-135000000D03*
X282800000Y-133000000D03*
D34*
X282800000Y-142400000D03*
D47*
X132620000Y-153150000D03*
X131350000Y-153150000D03*
X130080000Y-153150000D03*
X128810000Y-153150000D03*
X127540000Y-153150000D03*
X126270000Y-153150000D03*
X125000000Y-153150000D03*
X123730000Y-153150000D03*
X123730000Y-158100000D03*
X125000000Y-158100000D03*
X126270000Y-158100000D03*
X127540000Y-158100000D03*
X128810000Y-158100000D03*
X130080000Y-158100000D03*
X131350000Y-158100000D03*
X132620000Y-158100000D03*
D17*
X129915000Y-172880000D03*
X129915000Y-174430000D03*
D28*
X157258619Y-174781119D03*
X155608619Y-174781119D03*
X145062500Y-153415000D03*
X143412500Y-153415000D03*
D18*
X160318750Y-174936119D03*
X160318750Y-173286119D03*
D26*
X264412500Y-173512500D03*
X264412500Y-174647500D03*
D18*
X249090000Y-144075000D03*
X249090000Y-142425000D03*
D28*
X333526500Y-172774000D03*
X331876500Y-172774000D03*
D55*
X78300000Y-153500000D03*
X78300000Y-156800000D03*
D18*
X150190000Y-202545000D03*
X150190000Y-200895000D03*
X279720000Y-139995000D03*
X279720000Y-138345000D03*
D28*
X310462500Y-148202500D03*
X308812500Y-148202500D03*
D13*
X191234608Y-193867370D03*
X191234608Y-195517370D03*
D41*
X148125000Y-157973750D03*
X148775000Y-157973750D03*
X149425000Y-157973750D03*
X150075000Y-157973750D03*
X150075000Y-153673750D03*
X149425000Y-153673750D03*
X148775000Y-153673750D03*
X148125000Y-153673750D03*
D20*
X58375000Y-140700000D03*
X60025000Y-140700000D03*
D56*
X71037500Y-160200000D03*
X74162500Y-160200000D03*
D38*
X239850000Y-135912500D03*
X237950000Y-135912500D03*
X238900000Y-137787500D03*
D28*
X84065000Y-133520000D03*
X82415000Y-133520000D03*
D20*
X120762500Y-140000000D03*
X122412500Y-140000000D03*
D44*
X167325000Y-149275000D03*
X161725000Y-149275000D03*
D57*
X58389837Y-142155474D03*
X58389837Y-142655600D03*
X58389837Y-143155726D03*
X59990037Y-143155726D03*
X59990037Y-142655600D03*
X59990037Y-142155474D03*
D54*
X309025000Y-128700000D03*
X309025000Y-131650000D03*
D20*
X338925000Y-158285000D03*
X340575000Y-158285000D03*
X201697500Y-164185000D03*
X203347500Y-164185000D03*
X153948619Y-172281119D03*
X155598619Y-172281119D03*
D41*
X164128619Y-180471119D03*
X164778619Y-180471119D03*
X165428619Y-180471119D03*
X166078619Y-180471119D03*
X166078619Y-176171119D03*
X165428619Y-176171119D03*
X164778619Y-176171119D03*
X164128619Y-176171119D03*
D20*
X134142500Y-186275000D03*
X135792500Y-186275000D03*
D22*
X190592500Y-170638489D03*
X189457500Y-170638489D03*
D25*
X304995000Y-168807500D03*
X304995000Y-166907500D03*
X303120000Y-167857500D03*
D28*
X238008750Y-205922500D03*
X236358750Y-205922500D03*
D47*
X226365000Y-181791231D03*
X225095000Y-181791231D03*
X223825000Y-181791231D03*
X222555000Y-181791231D03*
X221285000Y-181791231D03*
X220015000Y-181791231D03*
X218745000Y-181791231D03*
X217475000Y-181791231D03*
X217475000Y-186741231D03*
X218745000Y-186741231D03*
X220015000Y-186741231D03*
X221285000Y-186741231D03*
X222555000Y-186741231D03*
X223825000Y-186741231D03*
X225095000Y-186741231D03*
X226365000Y-186741231D03*
D26*
X157113619Y-183731119D03*
X157113619Y-184866119D03*
D20*
X118712500Y-143600000D03*
X120362500Y-143600000D03*
D27*
X176682500Y-169138489D03*
X177817500Y-169138489D03*
D13*
X258297500Y-176955000D03*
X258297500Y-178605000D03*
X301315000Y-167240000D03*
X301315000Y-168890000D03*
D18*
X188150000Y-170463489D03*
X188150000Y-168813489D03*
D58*
X53847500Y-179050000D03*
X53847500Y-180000000D03*
X53847500Y-180950000D03*
X56122500Y-180950000D03*
X56122500Y-180000000D03*
X56122500Y-179050000D03*
D13*
X218787500Y-204125000D03*
X218787500Y-205775000D03*
D59*
X69750000Y-155150000D03*
X76150000Y-155150000D03*
D60*
X102969192Y-199121903D03*
X103771758Y-199924469D03*
D18*
X344525000Y-156410000D03*
X344525000Y-154760000D03*
D20*
X353319500Y-171929750D03*
X354969500Y-171929750D03*
D61*
X84875000Y-166775000D03*
X84875000Y-173175000D03*
D28*
X180825000Y-206400000D03*
X179175000Y-206400000D03*
D54*
X324432299Y-131012299D03*
X324432299Y-133962299D03*
D13*
X361087000Y-186963000D03*
X361087000Y-188613000D03*
D20*
X347225000Y-159010000D03*
X348875000Y-159010000D03*
D44*
X210160000Y-135512500D03*
X204560000Y-135512500D03*
D28*
X166843619Y-184551119D03*
X165193619Y-184551119D03*
X221813000Y-172777000D03*
X220163000Y-172777000D03*
D20*
X173185000Y-138680000D03*
X174835000Y-138680000D03*
D28*
X95922600Y-158038800D03*
X94272600Y-158038800D03*
D26*
X156047500Y-156865000D03*
X156047500Y-158000000D03*
D17*
X329500000Y-147115000D03*
X329500000Y-148665000D03*
D60*
X98073717Y-203898717D03*
X98876283Y-204701283D03*
D28*
X127575000Y-160150000D03*
X125925000Y-160150000D03*
D20*
X174475000Y-204675000D03*
X176125000Y-204675000D03*
D38*
X75500000Y-166712500D03*
X73600000Y-166712500D03*
X74550000Y-168587500D03*
D18*
X245174000Y-185666250D03*
X245174000Y-184016250D03*
X287116250Y-176322500D03*
X287116250Y-174672500D03*
D20*
X53387500Y-207462500D03*
X55037500Y-207462500D03*
D17*
X314825000Y-198400000D03*
X314825000Y-199950000D03*
D62*
X81110000Y-156600000D03*
X80090000Y-156600000D03*
D21*
X307957500Y-170977500D03*
X309507500Y-170977500D03*
D22*
X164621119Y-173331119D03*
X163486119Y-173331119D03*
D49*
X198050000Y-207387500D03*
X199950000Y-207387500D03*
X199000000Y-205512500D03*
D28*
X345112500Y-159372500D03*
X343462500Y-159372500D03*
D18*
X167703619Y-177156119D03*
X167703619Y-175506119D03*
D63*
X55025000Y-142535000D03*
X55025000Y-140165000D03*
D28*
X185225000Y-162863489D03*
X183575000Y-162863489D03*
D64*
X148923619Y-191158619D03*
X148923619Y-189258619D03*
D41*
X208395000Y-162280000D03*
X207745000Y-162280000D03*
X207095000Y-162280000D03*
X206445000Y-162280000D03*
X206445000Y-166580000D03*
X207095000Y-166580000D03*
X207745000Y-166580000D03*
X208395000Y-166580000D03*
D26*
X84600000Y-156782500D03*
X84600000Y-157917500D03*
D13*
X304300000Y-196825000D03*
X304300000Y-198475000D03*
D15*
X245190000Y-171905000D03*
X246030000Y-171905000D03*
D22*
X153007500Y-158763750D03*
X151872500Y-158763750D03*
D25*
X354632000Y-170379750D03*
X354632000Y-168479750D03*
X352757000Y-169429750D03*
D49*
X182325000Y-205287500D03*
X184225000Y-205287500D03*
X183275000Y-203412500D03*
D20*
X181475000Y-201650000D03*
X183125000Y-201650000D03*
D13*
X285406250Y-171655000D03*
X285406250Y-173305000D03*
D52*
X166850000Y-157825000D03*
X163900000Y-157825000D03*
D28*
X212485000Y-151032500D03*
X210835000Y-151032500D03*
D20*
X283381250Y-151927500D03*
X285031250Y-151927500D03*
D52*
X166825000Y-154500000D03*
X163875000Y-154500000D03*
D50*
X152943619Y-186858619D03*
X151043619Y-186858619D03*
D20*
X161738619Y-187541119D03*
X163388619Y-187541119D03*
D13*
X102400000Y-152117500D03*
X102400000Y-153767500D03*
X193350000Y-153475000D03*
X193350000Y-155125000D03*
D15*
X212892500Y-203425000D03*
X213732500Y-203425000D03*
D41*
X300315000Y-141502500D03*
X299665000Y-141502500D03*
X299015000Y-141502500D03*
X298365000Y-141502500D03*
X298365000Y-145802500D03*
X299015000Y-145802500D03*
X299665000Y-145802500D03*
X300315000Y-145802500D03*
D56*
X57337500Y-159475000D03*
X60462500Y-159475000D03*
D18*
X260600000Y-185445000D03*
X260600000Y-183795000D03*
X138127500Y-189900000D03*
X138127500Y-188250000D03*
D24*
X104025000Y-165375000D03*
X104025000Y-162425000D03*
D20*
X184669608Y-196302370D03*
X186319608Y-196302370D03*
D28*
X231165000Y-190715000D03*
X229515000Y-190715000D03*
D15*
X364527200Y-164185600D03*
X365367200Y-164185600D03*
X266122500Y-182670000D03*
X266962500Y-182670000D03*
D28*
X311432500Y-157192500D03*
X309782500Y-157192500D03*
D20*
X148575000Y-150563750D03*
X150225000Y-150563750D03*
D65*
X97418403Y-188858247D03*
X98220969Y-188055681D03*
D18*
X258310000Y-181652500D03*
X258310000Y-180002500D03*
D32*
X339214000Y-184404000D03*
X339214000Y-183134000D03*
X339214000Y-181864000D03*
X339214000Y-180594000D03*
X339214000Y-179324000D03*
X339214000Y-178054000D03*
X339214000Y-176784000D03*
X339214000Y-175514000D03*
X334264000Y-175514000D03*
X334264000Y-176784000D03*
X334264000Y-178054000D03*
X334264000Y-179324000D03*
X334264000Y-180594000D03*
X334264000Y-181864000D03*
X334264000Y-183134000D03*
X334264000Y-184404000D03*
D20*
X368699500Y-187940500D03*
X370349500Y-187940500D03*
D33*
X110200000Y-135000000D03*
X102800000Y-133000000D03*
D34*
X102800000Y-142400000D03*
D27*
X151727500Y-141530000D03*
X152862500Y-141530000D03*
D46*
X308492500Y-166555000D03*
X308492500Y-168455000D03*
X310367500Y-167505000D03*
D23*
X243190000Y-170122500D03*
X243190000Y-168987500D03*
D28*
X231145000Y-182925000D03*
X229495000Y-182925000D03*
D22*
X367472000Y-187180500D03*
X366337000Y-187180500D03*
D28*
X223885000Y-188766231D03*
X222235000Y-188766231D03*
D24*
X219175000Y-132675000D03*
X219175000Y-129725000D03*
D18*
X308487500Y-155237500D03*
X308487500Y-153587500D03*
D35*
X189644608Y-194657370D03*
X189644608Y-194007370D03*
X189644608Y-193357370D03*
X189644608Y-192707370D03*
X185344608Y-192707370D03*
X185344608Y-193357370D03*
X185344608Y-194007370D03*
X185344608Y-194657370D03*
D28*
X207655000Y-168170000D03*
X206005000Y-168170000D03*
D38*
X100795625Y-173875000D03*
X98895625Y-173875000D03*
X99845625Y-175750000D03*
D29*
X240860000Y-155305000D03*
X240860000Y-153755000D03*
D28*
X120604500Y-171327750D03*
X118954500Y-171327750D03*
D38*
X243624000Y-183293750D03*
X241724000Y-183293750D03*
X242674000Y-185168750D03*
D18*
X269457500Y-198672500D03*
X269457500Y-197022500D03*
D16*
X80090000Y-154900000D03*
X81110000Y-154900000D03*
D21*
X231125000Y-195335000D03*
X232675000Y-195335000D03*
D20*
X152750000Y-136630000D03*
X154400000Y-136630000D03*
D66*
X59875000Y-144650000D03*
X58325000Y-144650000D03*
D28*
X312945000Y-164975000D03*
X311295000Y-164975000D03*
D18*
X153620000Y-199525000D03*
X153620000Y-197875000D03*
D23*
X278731250Y-156100000D03*
X278731250Y-154965000D03*
D22*
X152607500Y-153243750D03*
X151472500Y-153243750D03*
D15*
X239690000Y-133170000D03*
X240530000Y-133170000D03*
D18*
X161833619Y-182886119D03*
X161833619Y-181236119D03*
D28*
X153838619Y-190748619D03*
X152188619Y-190748619D03*
X148740000Y-159543750D03*
X147090000Y-159543750D03*
D35*
X235980000Y-167250000D03*
X235980000Y-167900000D03*
X235980000Y-168550000D03*
X235980000Y-169200000D03*
X240280000Y-169200000D03*
X240280000Y-168550000D03*
X240280000Y-167900000D03*
X240280000Y-167250000D03*
D24*
X237700000Y-134025000D03*
X237700000Y-131075000D03*
D67*
X109300000Y-167300000D03*
X109300000Y-161700000D03*
D13*
X113250000Y-146817500D03*
X113250000Y-148467500D03*
D18*
X179125000Y-165913489D03*
X179125000Y-164263489D03*
D68*
X78300000Y-148925000D03*
X78300000Y-151875000D03*
D18*
X231140000Y-198440000D03*
X231140000Y-196790000D03*
X281936250Y-154502500D03*
X281936250Y-152852500D03*
D49*
X151700000Y-203087500D03*
X153600000Y-203087500D03*
X152650000Y-201212500D03*
D41*
X239055000Y-149152500D03*
X238405000Y-149152500D03*
X237755000Y-149152500D03*
X237105000Y-149152500D03*
X237105000Y-153452500D03*
X237755000Y-153452500D03*
X238405000Y-153452500D03*
X239055000Y-153452500D03*
D10*
X177700000Y-204025000D03*
X180650000Y-204025000D03*
D17*
X309532500Y-174062500D03*
X309532500Y-175612500D03*
D28*
X196575000Y-204375000D03*
X194925000Y-204375000D03*
X166665989Y-172064011D03*
X165015989Y-172064011D03*
D13*
X113429500Y-177552750D03*
X113429500Y-179202750D03*
X358947500Y-133547500D03*
X358947500Y-135197500D03*
D18*
X302977500Y-173475000D03*
X302977500Y-171825000D03*
D22*
X367417500Y-164202500D03*
X366282500Y-164202500D03*
D20*
X269005000Y-182510000D03*
X270655000Y-182510000D03*
D18*
X330480000Y-142880000D03*
X330480000Y-141230000D03*
X215940000Y-186611231D03*
X215940000Y-184961231D03*
D28*
X94010000Y-147040000D03*
X92360000Y-147040000D03*
D13*
X286496250Y-152802500D03*
X286496250Y-154452500D03*
D20*
X210835000Y-147982500D03*
X212485000Y-147982500D03*
D18*
X188150000Y-173513489D03*
X188150000Y-171863489D03*
D28*
X183819608Y-194152370D03*
X182169608Y-194152370D03*
D27*
X192547108Y-194082370D03*
X193682108Y-194082370D03*
D18*
X340400000Y-156835000D03*
X340400000Y-155185000D03*
X244500000Y-170720000D03*
X244500000Y-169070000D03*
D13*
X210880000Y-141027500D03*
X210880000Y-142677500D03*
D18*
X265675000Y-138352500D03*
X265675000Y-136702500D03*
D28*
X177700000Y-170388489D03*
X176050000Y-170388489D03*
X97391875Y-173362500D03*
X95741875Y-173362500D03*
D10*
X252140000Y-165225000D03*
X255090000Y-165225000D03*
D28*
X215925000Y-144942500D03*
X214275000Y-144942500D03*
D27*
X84832500Y-160850000D03*
X85967500Y-160850000D03*
D28*
X177675000Y-164288489D03*
X176025000Y-164288489D03*
X183750000Y-158700000D03*
X182100000Y-158700000D03*
D69*
X84450000Y-158890000D03*
X84450000Y-159910000D03*
D28*
X218738000Y-172777000D03*
X217088000Y-172777000D03*
D18*
X90910000Y-147090000D03*
X90910000Y-145440000D03*
D27*
X207532500Y-149612500D03*
X208667500Y-149612500D03*
D14*
X77150000Y-173800000D03*
X80100000Y-173800000D03*
D28*
X203325000Y-162635000D03*
X201675000Y-162635000D03*
D15*
X199652500Y-204025000D03*
X198812500Y-204025000D03*
D22*
X164321119Y-183281119D03*
X163186119Y-183281119D03*
D26*
X162763619Y-176153619D03*
X162763619Y-177288619D03*
D35*
X265005000Y-154222500D03*
X265005000Y-153572500D03*
X265005000Y-152922500D03*
X265005000Y-152272500D03*
X260705000Y-152272500D03*
X260705000Y-152922500D03*
X260705000Y-153572500D03*
X260705000Y-154222500D03*
D20*
X117289500Y-183337750D03*
X118939500Y-183337750D03*
D26*
X215150000Y-136365000D03*
X215150000Y-137500000D03*
D70*
X102362847Y-200283325D03*
X103458863Y-201379341D03*
D13*
X274690000Y-134747500D03*
X274690000Y-136397500D03*
D18*
X242880000Y-147615000D03*
X242880000Y-145965000D03*
D23*
X169353619Y-179538619D03*
X169353619Y-178403619D03*
D28*
X97415000Y-152085000D03*
X95765000Y-152085000D03*
D13*
X266595000Y-153692500D03*
X266595000Y-155342500D03*
D45*
X77425000Y-162500000D03*
X74475000Y-162500000D03*
D23*
X304682500Y-173600000D03*
X304682500Y-172465000D03*
D49*
X150200000Y-199197500D03*
X152100000Y-199197500D03*
X151150000Y-197322500D03*
D36*
X336255000Y-129755000D03*
X336255000Y-135355000D03*
D28*
X130675000Y-160150000D03*
X129025000Y-160150000D03*
X364287000Y-185578000D03*
X362637000Y-185578000D03*
D20*
X143422500Y-156465000D03*
X145072500Y-156465000D03*
D18*
X263072500Y-175005000D03*
X263072500Y-173355000D03*
D20*
X314862500Y-148212500D03*
X316512500Y-148212500D03*
D15*
X341547500Y-155610000D03*
X342387500Y-155610000D03*
D71*
X85422337Y-201490711D03*
X84619771Y-202293277D03*
D22*
X355124500Y-167204750D03*
X353989500Y-167204750D03*
D20*
X154393619Y-186788619D03*
X156043619Y-186788619D03*
D54*
X330932299Y-131012299D03*
X330932299Y-133962299D03*
D28*
X125375000Y-151150000D03*
X123725000Y-151150000D03*
D18*
X309740000Y-137605000D03*
X309740000Y-135955000D03*
D11*
X213720000Y-150800000D03*
X213720000Y-149960000D03*
D19*
X118337500Y-137900000D03*
X120237500Y-137900000D03*
D38*
X222237500Y-206562500D03*
X220337500Y-206562500D03*
X221287500Y-208437500D03*
D15*
X248690000Y-132120000D03*
X249530000Y-132120000D03*
D13*
X188374608Y-182902370D03*
X188374608Y-184552370D03*
D66*
X137465000Y-173950000D03*
X135915000Y-173950000D03*
D18*
X211870000Y-146527500D03*
X211870000Y-144877500D03*
D13*
X311005000Y-169930000D03*
X311005000Y-171580000D03*
D18*
X82500000Y-132065000D03*
X82500000Y-130415000D03*
X211762500Y-205425000D03*
X211762500Y-203775000D03*
D23*
X270297500Y-177467500D03*
X270297500Y-176332500D03*
D18*
X156660000Y-203415000D03*
X156660000Y-201765000D03*
X356419500Y-172479750D03*
X356419500Y-170829750D03*
D10*
X204150000Y-178950000D03*
X207100000Y-178950000D03*
D38*
X214320000Y-141295000D03*
X212420000Y-141295000D03*
X213370000Y-143170000D03*
D72*
X312362500Y-177187500D03*
X317962500Y-177187500D03*
D18*
X277471250Y-158387500D03*
X277471250Y-156737500D03*
X311800000Y-200000000D03*
X311800000Y-198350000D03*
D20*
X186050000Y-149700000D03*
X187700000Y-149700000D03*
D64*
X209362500Y-206375000D03*
X209362500Y-204475000D03*
D13*
X188374608Y-185902370D03*
X188374608Y-187552370D03*
D18*
X126955392Y-204837500D03*
X126955392Y-203187500D03*
D54*
X138177500Y-183650000D03*
X138177500Y-186600000D03*
D73*
X91510000Y-179275000D03*
X91510000Y-182875000D03*
X92780000Y-179275000D03*
X92780000Y-182875000D03*
X94050000Y-179275000D03*
X94050000Y-182875000D03*
X95320000Y-179275000D03*
X95320000Y-182875000D03*
X96590000Y-179275000D03*
X96590000Y-182875000D03*
D21*
X177600000Y-173513489D03*
X179150000Y-173513489D03*
D49*
X315350000Y-195437500D03*
X317250000Y-195437500D03*
X316300000Y-193562500D03*
D38*
X161483619Y-176633619D03*
X159583619Y-176633619D03*
X160533619Y-178508619D03*
D74*
X235080000Y-132197500D03*
X235080000Y-134022500D03*
D28*
X262895000Y-182360000D03*
X261245000Y-182360000D03*
D35*
X133055000Y-170385000D03*
X133055000Y-171035000D03*
X133055000Y-171685000D03*
X133055000Y-172335000D03*
X137355000Y-172335000D03*
X137355000Y-171685000D03*
X137355000Y-171035000D03*
X137355000Y-170385000D03*
D28*
X142052500Y-156955000D03*
X140402500Y-156955000D03*
D27*
X333487500Y-136880000D03*
X334622500Y-136880000D03*
D29*
X146510000Y-155058750D03*
X146510000Y-153508750D03*
D28*
X117337500Y-143600000D03*
X115687500Y-143600000D03*
D35*
X111650000Y-150167500D03*
X111650000Y-149517500D03*
X111650000Y-148867500D03*
X111650000Y-148217500D03*
X107350000Y-148217500D03*
X107350000Y-148867500D03*
X107350000Y-149517500D03*
X107350000Y-150167500D03*
D18*
X241870000Y-168960000D03*
X241870000Y-167310000D03*
D33*
X320200000Y-135000000D03*
X312800000Y-133000000D03*
D34*
X312800000Y-142400000D03*
D18*
X135690000Y-184847500D03*
X135690000Y-183197500D03*
D75*
X126147500Y-193250000D03*
X127417500Y-193250000D03*
X128687500Y-193250000D03*
X129957500Y-193250000D03*
X131227500Y-193250000D03*
X132497500Y-193250000D03*
X133767500Y-193250000D03*
X135037500Y-193250000D03*
X135037500Y-188300000D03*
X133767500Y-188300000D03*
X132497500Y-188300000D03*
X131227500Y-188300000D03*
X129957500Y-188300000D03*
X128687500Y-188300000D03*
X127417500Y-188300000D03*
X126147500Y-188300000D03*
D76*
X83700000Y-164400000D03*
X80400000Y-164400000D03*
D77*
X261055000Y-180392500D03*
X261055000Y-178567500D03*
D18*
X271895000Y-130892500D03*
X271895000Y-129242500D03*
D28*
X76225000Y-164400000D03*
X74575000Y-164400000D03*
D13*
X296130000Y-142520000D03*
X296130000Y-144170000D03*
D22*
X190592500Y-173688489D03*
X189457500Y-173688489D03*
D78*
X92604772Y-208370226D03*
X91261270Y-209713728D03*
D28*
X150245000Y-152093750D03*
X148595000Y-152093750D03*
D13*
X247190000Y-171570000D03*
X247190000Y-173220000D03*
D54*
X302450000Y-128725000D03*
X302450000Y-131675000D03*
D13*
X125415392Y-203187500D03*
X125415392Y-204837500D03*
D72*
X294285000Y-133695000D03*
X299885000Y-133695000D03*
D18*
X287106250Y-173302500D03*
X287106250Y-171652500D03*
D26*
X267810000Y-182442500D03*
X267810000Y-183577500D03*
D18*
X265742500Y-174925000D03*
X265742500Y-173275000D03*
X216159231Y-170130769D03*
X216159231Y-168480769D03*
X190030000Y-142605000D03*
X190030000Y-140955000D03*
D28*
X240665000Y-170825000D03*
X239015000Y-170825000D03*
X334955000Y-138155000D03*
X333305000Y-138155000D03*
D17*
X301225000Y-196875000D03*
X301225000Y-198425000D03*
D18*
X228224231Y-167988307D03*
X228224231Y-166338307D03*
D28*
X145062500Y-154945000D03*
X143412500Y-154945000D03*
D22*
X93477500Y-145790000D03*
X92342500Y-145790000D03*
D25*
X237681250Y-204362500D03*
X237681250Y-202462500D03*
X235806250Y-203412500D03*
D28*
X348150000Y-160585000D03*
X346500000Y-160585000D03*
D26*
X83650000Y-155832500D03*
X83650000Y-156967500D03*
D15*
X92615000Y-144815000D03*
X93455000Y-144815000D03*
D71*
X87190104Y-197884466D03*
X86387538Y-198687032D03*
D79*
X54600000Y-156325000D03*
X50300000Y-156325000D03*
D28*
X367397500Y-139972500D03*
X365747500Y-139972500D03*
D18*
X181125000Y-179125000D03*
X181125000Y-177475000D03*
D28*
X189800000Y-158700000D03*
X188150000Y-158700000D03*
D20*
X198075000Y-209175000D03*
X199725000Y-209175000D03*
D23*
X304682500Y-171380000D03*
X304682500Y-170245000D03*
D13*
X367375000Y-158327500D03*
X367375000Y-159977500D03*
D32*
X186100000Y-172648489D03*
X186100000Y-171378489D03*
X186100000Y-170108489D03*
X186100000Y-168838489D03*
X186100000Y-167568489D03*
X186100000Y-166298489D03*
X186100000Y-165028489D03*
X181150000Y-165028489D03*
X181150000Y-166298489D03*
X181150000Y-167568489D03*
X181150000Y-168838489D03*
X181150000Y-170108489D03*
X181150000Y-171378489D03*
X181150000Y-172648489D03*
D22*
X367472000Y-188190500D03*
X366337000Y-188190500D03*
D20*
X363562000Y-194628000D03*
X365212000Y-194628000D03*
D13*
X188374608Y-188927370D03*
X188374608Y-190577370D03*
D28*
X131767500Y-195275000D03*
X130117500Y-195275000D03*
D80*
X59737500Y-146450000D03*
X57662500Y-146450000D03*
D20*
X154090000Y-141790000D03*
X155740000Y-141790000D03*
D81*
X87230762Y-205197717D03*
X88397488Y-204030991D03*
D28*
X218913000Y-163827000D03*
X217263000Y-163827000D03*
D20*
X151625000Y-157513750D03*
X153275000Y-157513750D03*
D18*
X286473750Y-151437500D03*
X286473750Y-149787500D03*
D27*
X162821119Y-184291119D03*
X163956119Y-184291119D03*
D26*
X124175392Y-203225000D03*
X124175392Y-204360000D03*
D27*
X192547108Y-195062370D03*
X193682108Y-195062370D03*
D18*
X327987500Y-148745000D03*
X327987500Y-147095000D03*
D35*
X263130000Y-177550000D03*
X263130000Y-178200000D03*
X263130000Y-178850000D03*
X263130000Y-179500000D03*
X267430000Y-179500000D03*
X267430000Y-178850000D03*
X267430000Y-178200000D03*
X267430000Y-177550000D03*
D18*
X310722500Y-180632500D03*
X310722500Y-178982500D03*
D23*
X306980000Y-168697500D03*
X306980000Y-167562500D03*
D24*
X215800000Y-132675000D03*
X215800000Y-129725000D03*
D13*
X151913619Y-177221119D03*
X151913619Y-178871119D03*
D18*
X131445000Y-174470000D03*
X131445000Y-172820000D03*
X234380000Y-168710000D03*
X234380000Y-167060000D03*
X259105000Y-154757500D03*
X259105000Y-153107500D03*
D22*
X208917500Y-139612500D03*
X207782500Y-139612500D03*
D82*
X51385000Y-182800000D03*
X51385000Y-177800000D03*
D83*
X48685000Y-176800000D03*
X48685000Y-183800000D03*
D84*
X51385000Y-179000000D03*
X51385000Y-179650000D03*
X51385000Y-180300000D03*
X51385000Y-180950000D03*
X51385000Y-181600000D03*
D85*
X48685000Y-181300000D03*
D86*
X48685000Y-177400000D03*
X48685000Y-183200000D03*
D85*
X48685000Y-179300000D03*
D20*
X237765000Y-155060000D03*
X239415000Y-155060000D03*
D28*
X314452500Y-157192500D03*
X312802500Y-157192500D03*
D10*
X204115000Y-185680000D03*
X207065000Y-185680000D03*
D22*
X166831119Y-173331119D03*
X165696119Y-173331119D03*
D18*
X181375000Y-156850000D03*
X181375000Y-155200000D03*
X179125000Y-169013489D03*
X179125000Y-167363489D03*
D20*
X204135000Y-150892500D03*
X205785000Y-150892500D03*
D13*
X263655000Y-149067500D03*
X263655000Y-150717500D03*
D20*
X246444000Y-130657600D03*
X248094000Y-130657600D03*
X134142500Y-195250000D03*
X135792500Y-195250000D03*
X203255000Y-166655000D03*
X204905000Y-166655000D03*
D87*
X91295225Y-207497540D03*
X91981119Y-206811646D03*
D28*
X372050000Y-164152500D03*
X370400000Y-164152500D03*
D22*
X81267500Y-153900000D03*
X80132500Y-153900000D03*
D28*
X298995000Y-139620000D03*
X297345000Y-139620000D03*
D27*
X153246119Y-178001119D03*
X154381119Y-178001119D03*
D28*
X145072500Y-157985000D03*
X143422500Y-157985000D03*
D13*
X150703619Y-190673619D03*
X150703619Y-192323619D03*
X218787500Y-207150000D03*
X218787500Y-208800000D03*
D20*
X235965000Y-147560000D03*
X237615000Y-147560000D03*
D13*
X122150000Y-153425000D03*
X122150000Y-155075000D03*
D18*
X102345625Y-176162500D03*
X102345625Y-174512500D03*
X61500000Y-144075000D03*
X61500000Y-142425000D03*
X286376250Y-161192500D03*
X286376250Y-159542500D03*
D28*
X361347500Y-139997500D03*
X359697500Y-139997500D03*
D12*
X363987500Y-162702500D03*
X365812500Y-162702500D03*
D49*
X306072500Y-176145000D03*
X307972500Y-176145000D03*
X307022500Y-174270000D03*
D41*
X362712000Y-191498000D03*
X363362000Y-191498000D03*
X364012000Y-191498000D03*
X364662000Y-191498000D03*
X364662000Y-187198000D03*
X364012000Y-187198000D03*
X363362000Y-187198000D03*
X362712000Y-187198000D03*
D13*
X148275000Y-138235000D03*
X148275000Y-139885000D03*
D23*
X243140000Y-167872500D03*
X243140000Y-166737500D03*
D28*
X274697500Y-178050000D03*
X273047500Y-178050000D03*
D22*
X303550000Y-165607500D03*
X302415000Y-165607500D03*
D28*
X213975000Y-139522500D03*
X212325000Y-139522500D03*
D13*
X274675000Y-140852500D03*
X274675000Y-142502500D03*
X287896250Y-156292500D03*
X287896250Y-157942500D03*
D26*
X137235392Y-203665000D03*
X137235392Y-204800000D03*
D20*
X227855000Y-181405000D03*
X229505000Y-181405000D03*
D26*
X82050000Y-155732500D03*
X82050000Y-156867500D03*
D49*
X302375000Y-195112500D03*
X304275000Y-195112500D03*
X303325000Y-193237500D03*
D18*
X221887500Y-204875000D03*
X221887500Y-203225000D03*
D15*
X353059500Y-167229750D03*
X352219500Y-167229750D03*
D28*
X128400000Y-151150000D03*
X126750000Y-151150000D03*
X348500000Y-153810000D03*
X346850000Y-153810000D03*
D18*
X150140000Y-205565000D03*
X150140000Y-203915000D03*
D28*
X241038750Y-205522500D03*
X239388750Y-205522500D03*
D72*
X202675000Y-173550000D03*
X208275000Y-173550000D03*
D28*
X224813000Y-172777000D03*
X223163000Y-172777000D03*
D23*
X278731250Y-158320000D03*
X278731250Y-157185000D03*
D13*
X274675000Y-137802500D03*
X274675000Y-139452500D03*
D22*
X343892500Y-153585000D03*
X342757500Y-153585000D03*
D13*
X265675000Y-139752500D03*
X265675000Y-141402500D03*
X168103619Y-178536119D03*
X168103619Y-180186119D03*
X136567500Y-188150000D03*
X136567500Y-189800000D03*
D18*
X332229000Y-178964000D03*
X332229000Y-177314000D03*
D22*
X206447500Y-149612500D03*
X205312500Y-149612500D03*
D19*
X187794608Y-196552370D03*
X189694608Y-196552370D03*
D28*
X177675000Y-167413489D03*
X176025000Y-167413489D03*
D13*
X235590000Y-164060000D03*
X235590000Y-165710000D03*
D74*
X162018750Y-172981119D03*
X162018750Y-174806119D03*
D29*
X80980000Y-131980000D03*
X80980000Y-130430000D03*
D11*
X150790000Y-195110000D03*
X150790000Y-195950000D03*
D28*
X125375000Y-148350000D03*
X123725000Y-148350000D03*
D20*
X189575000Y-168863489D03*
X191225000Y-168863489D03*
D28*
X262195000Y-150662500D03*
X260545000Y-150662500D03*
D20*
X95766875Y-174912500D03*
X97416875Y-174912500D03*
D13*
X179384608Y-191417370D03*
X179384608Y-193067370D03*
D20*
X107775000Y-151792500D03*
X109425000Y-151792500D03*
D47*
X318922500Y-150237500D03*
X317652500Y-150237500D03*
X316382500Y-150237500D03*
X315112500Y-150237500D03*
X313842500Y-150237500D03*
X312572500Y-150237500D03*
X311302500Y-150237500D03*
X310032500Y-150237500D03*
X310032500Y-155187500D03*
X311302500Y-155187500D03*
X312572500Y-155187500D03*
X313842500Y-155187500D03*
X315112500Y-155187500D03*
X316382500Y-155187500D03*
X317652500Y-155187500D03*
X318922500Y-155187500D03*
D26*
X233700000Y-143302500D03*
X233700000Y-144437500D03*
D23*
X289146250Y-158815000D03*
X289146250Y-157680000D03*
D27*
X176682500Y-166013489D03*
X177817500Y-166013489D03*
D13*
X182290000Y-131370000D03*
X182290000Y-133020000D03*
D28*
X153225000Y-204890000D03*
X151575000Y-204890000D03*
D20*
X307907500Y-172497500D03*
X309557500Y-172497500D03*
D26*
X107425000Y-157600000D03*
X107425000Y-158735000D03*
D13*
X300465000Y-138000000D03*
X300465000Y-139650000D03*
D20*
X135865000Y-175460000D03*
X137515000Y-175460000D03*
D49*
X240164000Y-179758750D03*
X242064000Y-179758750D03*
X241114000Y-177883750D03*
D13*
X124570000Y-191195000D03*
X124570000Y-192845000D03*
D28*
X337245000Y-140810000D03*
X335595000Y-140810000D03*
D18*
X113489500Y-173087750D03*
X113489500Y-171437750D03*
D88*
X78430000Y-131625000D03*
X74030000Y-131625000D03*
D23*
X270307500Y-179687500D03*
X270307500Y-178552500D03*
D14*
X77150000Y-169200000D03*
X80100000Y-169200000D03*
D26*
X168973619Y-175433619D03*
X168973619Y-176568619D03*
D27*
X238222500Y-145840000D03*
X239357500Y-145840000D03*
D28*
X244035000Y-172185000D03*
X242385000Y-172185000D03*
X186574608Y-191102370D03*
X184924608Y-191102370D03*
D27*
X176682500Y-172138489D03*
X177817500Y-172138489D03*
X194777108Y-194097370D03*
X195912108Y-194097370D03*
D38*
X157060000Y-198152500D03*
X155160000Y-198152500D03*
X156110000Y-200027500D03*
D13*
X216149231Y-165440769D03*
X216149231Y-167090769D03*
D89*
X98738925Y-189376203D03*
X99834941Y-188280187D03*
D28*
X301182500Y-165782500D03*
X299532500Y-165782500D03*
D20*
X150918619Y-185078619D03*
X152568619Y-185078619D03*
D27*
X157676119Y-173521119D03*
X158811119Y-173521119D03*
D18*
X358947500Y-138222500D03*
X358947500Y-136572500D03*
D13*
X306462500Y-170932500D03*
X306462500Y-172582500D03*
X270975000Y-196992500D03*
X270975000Y-198642500D03*
D18*
X332239000Y-175934000D03*
X332239000Y-174284000D03*
X211760000Y-154857500D03*
X211760000Y-153207500D03*
D45*
X83275000Y-149850000D03*
X80325000Y-149850000D03*
D13*
X356419500Y-167804750D03*
X356419500Y-169454750D03*
D28*
X97585000Y-156510000D03*
X95935000Y-156510000D03*
D18*
X313300000Y-200000000D03*
X313300000Y-198350000D03*
D15*
X158713619Y-190021119D03*
X157873619Y-190021119D03*
D45*
X83275000Y-152200000D03*
X80325000Y-152200000D03*
D35*
X180690000Y-132845000D03*
X180690000Y-132195000D03*
X180690000Y-131545000D03*
X180690000Y-130895000D03*
X176390000Y-130895000D03*
X176390000Y-131545000D03*
X176390000Y-132195000D03*
X176390000Y-132845000D03*
D20*
X334976500Y-173954000D03*
X336626500Y-173954000D03*
D18*
X96535000Y-150585000D03*
X96535000Y-148935000D03*
X284866250Y-161202500D03*
X284866250Y-159552500D03*
D28*
X242240000Y-149102500D03*
X240590000Y-149102500D03*
D26*
X362440000Y-163302500D03*
X362440000Y-164437500D03*
D77*
X280186250Y-157100000D03*
X280186250Y-155275000D03*
D18*
X207250000Y-152527500D03*
X207250000Y-150877500D03*
D28*
X239465000Y-156610000D03*
X237815000Y-156610000D03*
D18*
X149785000Y-139875000D03*
X149785000Y-138225000D03*
D28*
X198794608Y-195947370D03*
X197144608Y-195947370D03*
D13*
X122489500Y-175987750D03*
X122489500Y-177637750D03*
D46*
X152026119Y-173821119D03*
X152026119Y-175721119D03*
X153901119Y-174771119D03*
D33*
X140200000Y-135000000D03*
X132800000Y-133000000D03*
D34*
X132800000Y-142400000D03*
D23*
X154510000Y-160681250D03*
X154510000Y-159546250D03*
D20*
X131117500Y-186300000D03*
X132767500Y-186300000D03*
D13*
X213337500Y-204575000D03*
X213337500Y-206225000D03*
D27*
X203885000Y-165415000D03*
X205020000Y-165415000D03*
D13*
X215930000Y-181951231D03*
X215930000Y-183601231D03*
D46*
X92922500Y-148585000D03*
X92922500Y-150485000D03*
X94797500Y-149535000D03*
D28*
X205765000Y-145812500D03*
X204115000Y-145812500D03*
X208225000Y-148362500D03*
X206575000Y-148362500D03*
D24*
X212530000Y-132475000D03*
X212530000Y-129525000D03*
D28*
X156225000Y-204890000D03*
X154575000Y-204890000D03*
D33*
X200200000Y-135000000D03*
X192800000Y-133000000D03*
D34*
X192800000Y-142400000D03*
D23*
X157123619Y-181066119D03*
X157123619Y-179931119D03*
D90*
X80462500Y-159662500D03*
X81437500Y-159662500D03*
X81437500Y-160637500D03*
X80462500Y-160637500D03*
D91*
X78962500Y-158900000D03*
X78962500Y-159400000D03*
X78962500Y-159900000D03*
X78962500Y-160400000D03*
X78962500Y-160900000D03*
X78962500Y-161400000D03*
D92*
X79700000Y-162137500D03*
X80200000Y-162137500D03*
X80700000Y-162137500D03*
X81200000Y-162137500D03*
X81700000Y-162137500D03*
X82200000Y-162137500D03*
D91*
X82937500Y-161400000D03*
X82937500Y-160900000D03*
X82937500Y-160400000D03*
X82937500Y-159900000D03*
X82937500Y-159400000D03*
X82937500Y-158900000D03*
D92*
X82200000Y-158162500D03*
X81700000Y-158162500D03*
X81200000Y-158162500D03*
X80700000Y-158162500D03*
X80200000Y-158162500D03*
X79700000Y-158162500D03*
D13*
X239463750Y-202377500D03*
X239463750Y-204027500D03*
D23*
X343275000Y-155852500D03*
X343275000Y-154717500D03*
D28*
X364372500Y-139997500D03*
X362722500Y-139997500D03*
D18*
X300825000Y-193775000D03*
X300825000Y-192125000D03*
D28*
X198794608Y-194422370D03*
X197144608Y-194422370D03*
D20*
X368719500Y-184880500D03*
X370369500Y-184880500D03*
D49*
X117387500Y-141812500D03*
X119287500Y-141812500D03*
X118337500Y-139937500D03*
D28*
X195769608Y-196312370D03*
X194119608Y-196312370D03*
D20*
X304200000Y-191475000D03*
X305850000Y-191475000D03*
X224775000Y-179765000D03*
X226425000Y-179765000D03*
D13*
X267480000Y-174365000D03*
X267480000Y-176015000D03*
D18*
X131455000Y-171435000D03*
X131455000Y-169785000D03*
D49*
X285173750Y-169955000D03*
X287073750Y-169955000D03*
X286123750Y-168080000D03*
D13*
X204792500Y-162610000D03*
X204792500Y-164260000D03*
X135975392Y-203807500D03*
X135975392Y-205457500D03*
D18*
X151700000Y-152068750D03*
X151700000Y-150418750D03*
D28*
X96360000Y-145515000D03*
X94710000Y-145515000D03*
D27*
X182289608Y-195682370D03*
X183424608Y-195682370D03*
D18*
X343004000Y-175989000D03*
X343004000Y-174339000D03*
D54*
X327682299Y-131012299D03*
X327682299Y-133962299D03*
D27*
X161616119Y-180021119D03*
X162751119Y-180021119D03*
D49*
X96620625Y-171575000D03*
X98520625Y-171575000D03*
X97570625Y-169700000D03*
D20*
X146635000Y-135760000D03*
X148285000Y-135760000D03*
D18*
X352010000Y-153815000D03*
X352010000Y-152165000D03*
D23*
X157023619Y-189808619D03*
X157023619Y-188673619D03*
D20*
X330962500Y-147170000D03*
X332612500Y-147170000D03*
D93*
X88150001Y-198197361D03*
X88503554Y-198550914D03*
X88857107Y-198904467D03*
X89210661Y-199258021D03*
X89564214Y-199611574D03*
X89917768Y-199965128D03*
X90271321Y-200318681D03*
X90624874Y-200672234D03*
X90978428Y-201025788D03*
X91331981Y-201379341D03*
X91685534Y-201732894D03*
X92039088Y-202086448D03*
X92392641Y-202440001D03*
X92746195Y-202793555D03*
X93099748Y-203147108D03*
X93453301Y-203500661D03*
D94*
X96175663Y-203500661D03*
X96529216Y-203147108D03*
X96882769Y-202793555D03*
X97236323Y-202440001D03*
X97589876Y-202086448D03*
X97943430Y-201732894D03*
X98296983Y-201379341D03*
X98650536Y-201025788D03*
X99004090Y-200672234D03*
X99357643Y-200318681D03*
X99711196Y-199965128D03*
X100064750Y-199611574D03*
X100418303Y-199258021D03*
X100771857Y-198904467D03*
X101125410Y-198550914D03*
X101478963Y-198197361D03*
D93*
X101478963Y-195474999D03*
X101125410Y-195121446D03*
X100771857Y-194767893D03*
X100418303Y-194414339D03*
X100064750Y-194060786D03*
X99711196Y-193707232D03*
X99357643Y-193353679D03*
X99004090Y-193000126D03*
X98650536Y-192646572D03*
X98296983Y-192293019D03*
X97943430Y-191939466D03*
X97589876Y-191585912D03*
X97236323Y-191232359D03*
X96882769Y-190878805D03*
X96529216Y-190525252D03*
X96175663Y-190171699D03*
D94*
X93453301Y-190171699D03*
X93099748Y-190525252D03*
X92746195Y-190878805D03*
X92392641Y-191232359D03*
X92039088Y-191585912D03*
X91685534Y-191939466D03*
X91331981Y-192293019D03*
X90978428Y-192646572D03*
X90624874Y-193000126D03*
X90271321Y-193353679D03*
X89917768Y-193707232D03*
X89564214Y-194060786D03*
X89210661Y-194414339D03*
X88857107Y-194767893D03*
X88503554Y-195121446D03*
X88150001Y-195474999D03*
D28*
X261402500Y-176870000D03*
X259752500Y-176870000D03*
D13*
X179374608Y-188377370D03*
X179374608Y-190027370D03*
D28*
X371362000Y-193003000D03*
X369712000Y-193003000D03*
D20*
X220263000Y-163827000D03*
X221913000Y-163827000D03*
D12*
X239107500Y-147340000D03*
X240932500Y-147340000D03*
D15*
X342352500Y-154660000D03*
X341512500Y-154660000D03*
D74*
X105525000Y-147880000D03*
X105525000Y-149705000D03*
D36*
X144729200Y-204413200D03*
X144729200Y-210013200D03*
D25*
X90872500Y-150460000D03*
X90872500Y-148560000D03*
X88997500Y-149510000D03*
D64*
X244246400Y-135570000D03*
X244246400Y-133670000D03*
D13*
X155140000Y-201755000D03*
X155140000Y-203405000D03*
D25*
X365587500Y-160927500D03*
X365587500Y-159027500D03*
X363712500Y-159977500D03*
D20*
X365682000Y-184688000D03*
X367332000Y-184688000D03*
D18*
X179399608Y-187002370D03*
X179399608Y-185352370D03*
D49*
X138127500Y-193502500D03*
X140027500Y-193502500D03*
X139077500Y-191627500D03*
D18*
X122150000Y-158100000D03*
X122150000Y-156450000D03*
D46*
X215125000Y-204225000D03*
X215125000Y-206125000D03*
X217000000Y-205175000D03*
D25*
X371874500Y-191428000D03*
X371874500Y-189528000D03*
X369999500Y-190478000D03*
D13*
X361925000Y-157352500D03*
X361925000Y-159002500D03*
D26*
X215150000Y-138575000D03*
X215150000Y-139710000D03*
X257855000Y-153845000D03*
X257855000Y-154980000D03*
D10*
X252150000Y-158675000D03*
X255100000Y-158675000D03*
D18*
X245184000Y-182646250D03*
X245184000Y-180996250D03*
D28*
X241729000Y-181521250D03*
X240079000Y-181521250D03*
D24*
X141127500Y-198340000D03*
X141127500Y-195390000D03*
D23*
X213660000Y-152850000D03*
X213660000Y-151715000D03*
D20*
X368709500Y-186410500D03*
X370359500Y-186410500D03*
D37*
X86700000Y-195350000D03*
X85897434Y-194547434D03*
D18*
X283883750Y-173310000D03*
X283883750Y-171660000D03*
D49*
X311875000Y-195950000D03*
X313775000Y-195950000D03*
X312825000Y-194075000D03*
D18*
X266187500Y-195182500D03*
X266187500Y-193532500D03*
D33*
X170200000Y-135000000D03*
X162800000Y-133000000D03*
D34*
X162800000Y-142400000D03*
D28*
X239005000Y-165635000D03*
X237355000Y-165635000D03*
D33*
X230200000Y-135000000D03*
X222800000Y-133000000D03*
D34*
X222800000Y-142400000D03*
D10*
X252140000Y-161945000D03*
X255090000Y-161945000D03*
D13*
X368950000Y-162377500D03*
X368950000Y-164027500D03*
D48*
X53962500Y-137450000D03*
X50837500Y-137450000D03*
D47*
X226679231Y-165810769D03*
X225409231Y-165810769D03*
X224139231Y-165810769D03*
X222869231Y-165810769D03*
X221599231Y-165810769D03*
X220329231Y-165810769D03*
X219059231Y-165810769D03*
X217789231Y-165810769D03*
X217789231Y-170760769D03*
X219059231Y-170760769D03*
X220329231Y-170760769D03*
X221599231Y-170760769D03*
X222869231Y-170760769D03*
X224139231Y-170760769D03*
X225409231Y-170760769D03*
X226679231Y-170760769D03*
D20*
X190275000Y-206125000D03*
X191925000Y-206125000D03*
D26*
X248535000Y-171707500D03*
X248535000Y-172842500D03*
D18*
X304527500Y-177000000D03*
X304527500Y-175350000D03*
D20*
X189575000Y-165663489D03*
X191225000Y-165663489D03*
D22*
X266777500Y-183630000D03*
X265642500Y-183630000D03*
D13*
X308487500Y-150577500D03*
X308487500Y-152227500D03*
D23*
X283616250Y-161015000D03*
X283616250Y-159880000D03*
D18*
X138975000Y-175195000D03*
X138975000Y-173545000D03*
D11*
X151740000Y-195102500D03*
X151740000Y-195942500D03*
D35*
X282006250Y-156052500D03*
X282006250Y-156702500D03*
X282006250Y-157352500D03*
X282006250Y-158002500D03*
X286306250Y-158002500D03*
X286306250Y-157352500D03*
X286306250Y-156702500D03*
X286306250Y-156052500D03*
D13*
X227900000Y-184540000D03*
X227900000Y-186190000D03*
D28*
X303482500Y-170357500D03*
X301832500Y-170357500D03*
D95*
X86399912Y-202280902D03*
X85409963Y-203270851D03*
X86187780Y-204048668D03*
X87177729Y-203058719D03*
D20*
X95156250Y-159535000D03*
X96806250Y-159535000D03*
D22*
X148437500Y-137020000D03*
X147302500Y-137020000D03*
D20*
X320375000Y-152342538D03*
X322025000Y-152342538D03*
D13*
X341209000Y-177364000D03*
X341209000Y-179014000D03*
D28*
X166098619Y-174581119D03*
X164448619Y-174581119D03*
D18*
X309202500Y-179492500D03*
X309202500Y-177842500D03*
D13*
X241013750Y-202377500D03*
X241013750Y-204027500D03*
M02*
