G04 #@! TF.GenerationSoftware,KiCad,Pcbnew,(6.0.10)*
G04 #@! TF.CreationDate,2024-12-09T21:13:39+01:00*
G04 #@! TF.ProjectId,3_12_2024_MainBoardMCUwInstruments,335f3132-5f32-4303-9234-5f4d61696e42,rev?*
G04 #@! TF.SameCoordinates,Original*
G04 #@! TF.FileFunction,Soldermask,Bot*
G04 #@! TF.FilePolarity,Negative*
%FSLAX46Y46*%
G04 Gerber Fmt 4.6, Leading zero omitted, Abs format (unit mm)*
G04 Created by KiCad (PCBNEW (6.0.10)) date 2024-12-09 21:13:39*
%MOMM*%
%LPD*%
G01*
G04 APERTURE LIST*
G04 Aperture macros list*
%AMRoundRect*
0 Rectangle with rounded corners*
0 $1 Rounding radius*
0 $2 $3 $4 $5 $6 $7 $8 $9 X,Y pos of 4 corners*
0 Add a 4 corners polygon primitive as box body*
4,1,4,$2,$3,$4,$5,$6,$7,$8,$9,$2,$3,0*
0 Add four circle primitives for the rounded corners*
1,1,$1+$1,$2,$3*
1,1,$1+$1,$4,$5*
1,1,$1+$1,$6,$7*
1,1,$1+$1,$8,$9*
0 Add four rect primitives between the rounded corners*
20,1,$1+$1,$2,$3,$4,$5,0*
20,1,$1+$1,$4,$5,$6,$7,0*
20,1,$1+$1,$6,$7,$8,$9,0*
20,1,$1+$1,$8,$9,$2,$3,0*%
G04 Aperture macros list end*
%ADD10C,1.900000*%
%ADD11RoundRect,0.100000X0.850000X0.850000X-0.850000X0.850000X-0.850000X-0.850000X0.850000X-0.850000X0*%
%ADD12O,1.900000X1.900000*%
%ADD13RoundRect,0.100000X-0.850000X-0.850000X0.850000X-0.850000X0.850000X0.850000X-0.850000X0.850000X0*%
%ADD14RoundRect,0.100000X-0.850000X0.850000X-0.850000X-0.850000X0.850000X-0.850000X0.850000X0.850000X0*%
%ADD15RoundRect,0.100000X0.850000X-0.850000X0.850000X0.850000X-0.850000X0.850000X-0.850000X-0.850000X0*%
%ADD16O,1.750000X1.090000*%
%ADD17O,1.150000X1.450000*%
%ADD18RoundRect,0.100000X-1.010000X-2.510000X1.010000X-2.510000X1.010000X2.510000X-1.010000X2.510000X0*%
%ADD19O,2.220000X5.220000*%
G04 APERTURE END LIST*
D10*
X346500000Y-134100000D03*
X346500000Y-141100000D03*
D11*
X213350000Y-187800000D03*
D12*
X213350000Y-185260000D03*
D13*
X117450000Y-154365000D03*
D12*
X117450000Y-156905000D03*
D10*
X256500000Y-134100000D03*
X256500000Y-141100000D03*
X286500000Y-141100000D03*
X286500000Y-134100000D03*
D14*
X72170000Y-201200000D03*
D12*
X69630000Y-201200000D03*
X67090000Y-201200000D03*
X64550000Y-201200000D03*
X62010000Y-201200000D03*
X59470000Y-201200000D03*
X56930000Y-201200000D03*
D11*
X178750000Y-155900000D03*
D12*
X178750000Y-153360000D03*
D15*
X268900000Y-145397500D03*
D12*
X271440000Y-145397500D03*
D14*
X70050000Y-194665104D03*
D12*
X67510000Y-194665104D03*
X64970000Y-194665104D03*
X62430000Y-194665104D03*
X59890000Y-194665104D03*
X57350000Y-194665104D03*
X54810000Y-194665104D03*
D13*
X305875000Y-151775000D03*
D12*
X305875000Y-154315000D03*
D10*
X106500000Y-141100000D03*
X106500000Y-134100000D03*
X316500000Y-134100000D03*
X316500000Y-141100000D03*
D16*
X48685000Y-176800000D03*
D17*
X51385000Y-177800000D03*
D16*
X48685000Y-183800000D03*
D17*
X51385000Y-182800000D03*
D15*
X336079000Y-171334000D03*
D12*
X338619000Y-171334000D03*
D18*
X65160000Y-167275000D03*
D19*
X59980000Y-167275000D03*
D13*
X121960000Y-188775000D03*
D12*
X121960000Y-191315000D03*
D13*
X213538000Y-166552000D03*
D12*
X213538000Y-169092000D03*
D10*
X136500000Y-134100000D03*
X136500000Y-141100000D03*
X196500000Y-141100000D03*
X196500000Y-134100000D03*
D14*
X179669608Y-195592370D03*
D12*
X177129608Y-195592370D03*
D11*
X60930000Y-190165000D03*
D12*
X60930000Y-187625000D03*
X60930000Y-185085000D03*
D13*
X356290000Y-134680000D03*
D12*
X356290000Y-137220000D03*
D15*
X114900000Y-164150000D03*
D12*
X117440000Y-164150000D03*
D10*
X166500000Y-141100000D03*
X166500000Y-134100000D03*
X226500000Y-141100000D03*
X226500000Y-134100000D03*
M02*
